<?xml version="1.0" encoding="UTF-8" standalone="no"?>
<svg
   xmlns:dc="http://purl.org/dc/elements/1.1/"
   xmlns:cc="http://creativecommons.org/ns#"
   xmlns:rdf="http://www.w3.org/1999/02/22-rdf-syntax-ns#"
   xmlns:svg="http://www.w3.org/2000/svg"
   xmlns="http://www.w3.org/2000/svg"
   xmlns:sodipodi="http://sodipodi.sourceforge.net/DTD/sodipodi-0.dtd"
   xmlns:inkscape="http://www.inkscape.org/namespaces/inkscape"
   width="199.76915"
   height="118.81748"
   viewBox="0 0 199.76915 118.81748"
   version="1.1"
   id="svg65"
   sodipodi:docname="anna-maria.svg"
   inkscape:version="1.0.1 (3bc2e813f5, 2020-09-07)">
  <metadata
     id="metadata71">
    <rdf:RDF>
      <cc:Work
         rdf:about="">
        <dc:format>image/svg+xml</dc:format>
        <dc:type
           rdf:resource="http://purl.org/dc/dcmitype/StillImage" />
      </cc:Work>
    </rdf:RDF>
  </metadata>
  <defs
     id="defs69" />
  <sodipodi:namedview
     pagecolor="#ffffff"
     bordercolor="#666666"
     borderopacity="1"
     objecttolerance="10"
     gridtolerance="10"
     guidetolerance="10"
     inkscape:pageopacity="0"
     inkscape:pageshadow="2"
     inkscape:window-width="747"
     inkscape:window-height="480"
     id="namedview67"
     showgrid="false"
     inkscape:zoom="1.2704305"
     inkscape:cx="99.937041"
     inkscape:cy="58.979012"
     inkscape:window-x="0"
     inkscape:window-y="27"
     inkscape:window-maximized="0"
     inkscape:current-layer="svg65" />
  <!-- Generator: Sketch 54.1 (76490) - https://sketchapp.com -->
  <title
     id="title2">anna-maria</title>
  <desc
     id="desc4">Created with Sketch.</desc>
  <g
     id="g63"
     stroke="none"
     stroke-width="1"
     fill="none"
     fill-rule="evenodd"
     transform="translate(-0.06295908,-41.020988)">
    <g
       id="anna-maria_BGD">
      <g
         id="anna-maria"
         transform="translate(0,41)">
        <path
           d="m 103.90346,0.02098765 c 0.86044,0.14691358 1.63694,0.48271605 2.47639,0.73456791 1.76286,0.58765434 3.5467,1.15432094 5.28857,1.74197534 2.95907,1.0493827 6.04407,1.9938271 8.89821,3.337037 2.85415,1.7 5.56139,3.7777778 7.70199,6.3382721 2.22456,2.665432 3.88248,5.89753 4.36517,9.339506 0.10493,0.503703 0.37775,0.986419 0.56663,1.448148 0.50367,1.175308 1.00734,2.350617 1.532,3.504938 0.65058,1.469136 0.96538,3.001235 1.19623,4.596296 0.021,1.34321 0.23085,2.644445 0.063,3.987655 -0.063,1.888889 -0.25183,3.924691 -0.92339,5.708642 0.77649,1.007407 1.55299,2.014815 2.26652,3.064197 0.79748,1.364198 1.80483,2.497531 2.39245,3.987655 0.48268,1.238271 0.83945,2.476543 0.94438,3.819753 0.063,0.608642 0.063,1.217284 0,1.825926 l -0.042,0.419753 c -0.18888,2.161728 -1.13326,4.302469 -2.47639,6.002469 -0.33578,0.461728 -0.81847,0.860494 -1.13326,1.322222 -0.3148,1.322222 -0.90242,2.539506 -1.63694,3.693827 -0.65058,1.112346 -1.49003,1.951852 -2.35047,2.896297 l -0.063,0.482716 c -0.063,0.44074 -0.14691,0.881481 -0.23085,1.322222 -0.10493,0.608642 -0.29381,1.175308 -0.44071,1.762963 0,0.503703 0.18887,0.986419 0.25183,1.469136 0.12592,1.364197 0.10493,2.707407 0.021,4.071604 1.17523,-0.02099 2.35047,-0.02099 3.50472,-0.02099 1.19622,0 2.39245,0.02099 3.58867,-0.02099 1.30115,0.04197 2.58132,0.02099 3.88247,0.02099 1.65793,0 3.31585,0 4.97377,0 2.11962,-0.02099 4.26023,0.02099 6.37985,0.02099 2.45541,-0.04197 4.86884,0.335803 7.03043,1.553087 0.12592,-0.503704 0.20987,-1.007408 0.27283,-1.553087 0.86044,-0.06296 1.72088,-0.04197 2.56033,-0.02099 5.26758,0 10.53516,0 15.80273,0 6.42183,0.02099 12.84365,-0.02099 19.26548,0 -0.60861,1.196296 -1.32214,2.350617 -1.95173,3.546913 -1.09129,1.97284 -2.18258,3.966667 -3.29486,5.939507 -0.41973,0.71358 -0.79748,1.469135 -1.2382,2.182716 -0.25183,0.377777 -0.20986,0.776543 -0.25183,1.217283 -0.084,1.61605 -0.084,3.232099 -0.16789,4.869136 -0.10494,0.98642 -0.10494,1.97284 -0.14691,2.95926 -0.12592,2.14074 -0.18888,4.30247 -0.23085,6.44321 -0.16789,2.49753 -0.31479,5.01605 -0.29381,7.53457 0,0.48272 0,0.96543 0,1.42716 -0.0839,1.90988 0.10493,3.79877 0.042,5.70864 -8.47849,-0.021 -16.95698,0.021 -25.43547,0 -2.01469,0.18889 -4.05037,0.042 -6.06506,0.084 -0.96537,-0.042 -1.95173,0.10494 -2.89612,-0.084 -2.81217,0.042 -5.62434,-0.021 -8.43651,0.021 -1.61595,0.20988 -3.18993,-0.063 -4.80588,0 -6.79958,-0.021 -13.55719,0 -20.35677,0 -0.44071,0 -0.86044,0 -1.30115,-0.042 -0.44071,0.25185 -1.13326,0.0839 -1.63694,0.12592 -1.25918,0.063 -2.51836,-0.12592 -3.77754,-0.063 -13.68311,-0.021 -27.429172,-0.021 -41.133265,0 -0.986358,-0.042 -1.951731,0.042 -2.93809,0.084 -1.888772,-0.042 -3.777545,0.084 -5.666317,-0.084 -6.715635,0 -13.452256,0.021 -20.167891,0 -15.865687,0 -31.773347,0.021 -47.61804792,0 0.18887723,-0.96543 0.65057712,-1.88889 0.94438612,-2.83333 1.3850997,-3.79877 2.749213,-7.61852 4.1343127,-11.41729 1.5739769,-4.47037 3.3578174,-8.856792 5.0786991,-13.285187 1.657922,-4.239506 3.315845,-8.479013 4.994753,-12.697531 0.209864,-0.503704 0.419727,-1.007408 0.566632,-1.553087 0.566632,-0.08395 1.133263,-0.06296 1.720881,-0.06296 13.515215,0.02099 27.009444,0 40.524659,0 0.734523,0 1.469045,0 2.203568,0 1.511018,0.02099 3.022036,0.02099 4.533053,0 -1.699895,-1.825926 -3.231899,-3.84074 -4.449108,-6.023456 -1.028331,-1.930865 -1.951731,-4.02963 -2.308499,-6.191358 l -0.02099,0.04198 -0.02099,0.04197 c -0.398741,1.091358 -0.839454,2.203704 -1.175236,3.31605 H 56.537254 C 55.86569,65.691298 55.215113,63.361668 55.089195,60.84315 54.711441,56.435742 55.278072,52.07031 56.453308,47.809817 57.985312,42.709816 60.167894,38.02957 62.518366,33.265372 62.833161,32.761668 62.623298,32.0271 62.623298,31.460434 62.224557,26.402409 64.700947,21.302409 64.386152,16.349323 64.365162,14.901175 63.903466,13.432039 63.273875,12.130804 61.972718,9.6962963 59.748164,7.7864198 57.376705,6.4222222 57.75446,6.2123457 58.1532,6.1283951 58.572928,6.0234568 60.4617,5.5197531 62.371459,5.0790123 64.260231,4.554321 66.002099,4.1765432 67.72298,3.6518519 69.485834,3.4419753 c 1.993704,-0.3567901 4.09234,-0.2938271 6.107031,-0.2308642 1.070304,0 2.077649,0.3148148 3.147954,0.4407408 6.631689,1.3851851 12.717733,5.2679012 17.397691,10.0950621 2.035677,-0.104939 4.09234,-0.461729 6.10703,-0.461729 2.47639,0 4.86884,-0.08395 7.34523,0.230864 -0.18888,-1.930864 -0.71354,-3.8407404 -1.32214,-5.6876539 -1.04932,-2.8123457 -2.43442,-5.4987655 -4.36517,-7.80740745 z"
           id="Shape"
           fill="#fefefe"
           fill-rule="nonzero" />
        <path
           d="m 110.40923,5.2049383 c 1.86779,0.8395061 3.67262,1.8259259 5.51942,2.6654321 1.40608,0.7345679 2.79118,1.2802469 4.07135,2.2037036 3.48374,2.266667 6.48479,5.309877 8.01679,9.234568 0.52466,1.217284 0.65058,2.476543 0.90241,3.735802 0.39874,0.90247 0.83946,1.804939 1.19622,2.728395 0.52466,1.322223 1.19623,2.434568 1.553,3.819754 0.54564,2.308642 0.54564,4.785185 0.23085,7.135802 -0.0839,1.532099 -0.50368,3.169136 -1.40609,4.428395 1.17524,1.741975 2.60231,3.316049 3.6936,5.120988 0.4617,0.797531 1.09129,1.469136 1.51102,2.308642 0.9234,1.658024 1.25918,3.630864 0.90241,5.498765 -0.37776,1.993827 -1.57398,3.840741 -3.2319,5.01605 -0.16789,2.035802 -1.17524,3.777777 -2.51836,5.267901 -0.60861,0.650617 -1.30116,1.238271 -1.93075,1.867901 0.10493,1.322222 0.12592,2.602469 -0.41973,3.840741 -0.10493,0.377778 -0.48268,0.839506 -0.41972,1.238271 1.11227,2.875309 0.75551,6.233334 -0.67156,8.919754 -0.37776,0.650617 -0.50368,1.343209 -0.60861,2.077777 -0.69255,3.31605 -1.3851,6.737037 -2.07765,10.074074 -0.10493,0.797531 -0.41973,1.469136 -0.35677,2.287655 1.90976,-4.932099 3.88248,-9.864198 5.77125,-14.817284 4.09234,-0.04198 8.18468,0.02099 12.27702,-0.02099 0,1.741975 -0.0839,3.462963 -0.10493,5.204938 -0.16789,2.098766 -0.063,4.197531 -0.29381,6.296297 -0.021,1.490123 -0.042,2.959259 -0.10493,4.449382 0.6086,-2.014814 0.9234,-4.11358 1.40608,-6.149382 0.67157,-3.253087 1.40609,-6.527161 2.05667,-9.780247 2.74921,0 5.49842,-0.02099 8.24764,0 1.32214,0 2.68625,-0.04198 3.9874,0.146913 1.2382,0.27284 2.39245,0.650618 3.44177,1.385186 1.19622,0.860493 1.95173,2.035802 2.4554,3.4 0.3148,-1.637038 0.75551,-3.274075 1.00735,-4.932099 3.81951,-0.04198 7.66002,0.02099 11.47953,-0.02099 -0.23084,1.595062 -0.67156,3.190123 -0.96537,4.785185 -0.39874,1.741976 -0.73452,3.504939 -1.13326,5.246914 -0.10493,0.776543 -0.39874,1.511111 -0.39874,2.287654 1.63693,-4.092592 3.2319,-8.206173 4.84785,-12.319753 5.51941,0.02099 11.05981,0 16.57922,0.02099 -1.57398,2.749382 -3.06401,5.54074 -4.63798,8.311111 -0.10494,1.34321 -0.084,2.68642 -0.1679,4.008642 -0.1469,1.406173 -0.063,2.812345 -0.23085,4.197531 -0.063,1.679012 -0.10493,3.358024 -0.1469,5.037043 -0.16789,1.74197 -0.10493,3.50493 -0.29381,5.24691 -0.042,3.10617 -0.23085,6.19136 -0.27282,9.29753 -3.86149,-0.021 -7.72298,-0.021 -11.56349,0 0.0839,-0.71358 0.0839,-1.42716 0.12592,-2.14074 0.063,-0.48272 0.14691,-0.96543 0.063,-1.46914 -0.50367,1.17531 -0.71353,2.41358 -1.17523,3.63087 -0.81847,-0.042 -1.61595,-0.021 -2.43442,-0.021 -14.94229,0 -29.86359,-0.021 -44.80588,0 0.20987,-1.17531 0.25184,-2.49753 0.20987,-3.71482 -0.58762,1.17531 -0.86045,2.5605 -1.49004,3.71482 -12.04617,-0.063 -24.15529,-0.021 -36.201465,-0.021 1.804827,-8.45802 3.630641,-16.916049 5.456454,-25.374074 C 93.997901,89.533333 90.766002,88.211111 87.576076,86.7 c -0.209864,1.532099 -0.167891,3.085185 -0.23085,4.617284 0,1.679012 -0.188878,3.358025 -0.209864,5.037037 -0.209864,2.224691 -0.167891,4.449379 -0.272823,6.674079 -0.146904,1.55308 -0.08394,3.10617 -0.251836,4.63827 -0.04197,1.46913 -0.08394,2.93827 -0.125918,4.4074 -0.104932,1.28025 -0.146905,2.5605 -0.167891,3.84075 -3.819517,-0.042 -7.660021,-0.021 -11.479538,-0.021 0,-1.30124 0.335781,-2.51852 0.146904,-3.84074 -0.503672,1.25926 -0.881427,2.60247 -1.448058,3.84074 -16.66317,-0.042 -33.347325,0 -50.010494,-0.021 -2.161595,0 -4.32319,-0.021 -6.463798,0.021 0.02099,-1.21729 0.167891,-2.47655 0.06296,-3.69383 -0.335782,1.21728 -0.629591,2.47654 -1.091291,3.65185 -3.987408,-0.021 -7.9958025,0.021 -11.9832107,0.021 1.1542497,-3.29506 2.3714585,-6.6321 3.567681,-9.90617 0.881427,-2.35062 1.6789087,-4.72223 2.6232947,-7.030868 2.098636,-5.351851 4.197272,-10.745679 6.295908,-16.09753 0.377754,-1.007408 0.839454,-1.993828 1.154249,-3.04321 18.342078,-0.04198 36.726128,0.02099 55.089192,-0.02099 -0.356768,2.308642 -0.986358,4.596296 -1.406086,6.883951 -0.461699,2.098765 -0.881427,4.218518 -1.364113,6.338271 -0.146904,0.503704 -0.23085,0.944445 -0.209863,1.469136 1.825813,-4.638271 3.651626,-9.318518 5.498426,-13.95679 C 74.228751,79.732099 73.095488,79.039506 72.04617,78.2 67.827912,74.967901 64.113326,71.001235 62.287513,65.922222 c -0.566632,-1.741975 -0.9234,-3.567901 -1.3851,-5.351852 l -0.272822,0.146914 c -0.293809,0.608642 -0.524659,1.259259 -0.713536,1.909877 -0.04197,0.209876 -0.146905,0.398765 -0.314796,0.545679 -0.06296,-0.776544 -0.125918,-1.574075 -0.23085,-2.350618 -0.293809,-3.253086 -0.167891,-6.632099 0.398741,-9.864197 0.69255,-4.302469 2.24554,-8.541976 4.197272,-12.424692 0.755509,-1.553086 1.636936,-3.022222 2.371458,-4.596296 0.167891,-0.377778 0.4617,-0.818519 0.335782,-1.238272 C 66.484785,32.006173 66.274921,31.334568 66.274921,30.6 66.149003,26.675309 67.450157,22.666667 67.72298,18.741975 68.037775,16.853086 67.848898,14.94321 67.387198,13.096296 66.862539,11.123457 65.540399,9.3185185 63.798531,8.2691358 65.414481,8.017284 67.03043,7.7444444 68.64638,7.5135803 c 0.902413,-0.2098766 1.78384,-0.3148149 2.70724,-0.3567902 1.3851,-0.2098765 2.812172,-0.2308642 4.197272,0 1.427072,0.041975 2.854145,0.3987655 4.239244,0.7765432 5.834208,1.7 10.912907,5.4358027 14.879329,9.9901237 2.01469,-0.230864 4.050367,-0.587655 6.065055,-0.650618 2.79119,-0.08395 5.60336,-0.08395 8.39455,0.08395 1.40608,0.125926 2.81217,0.35679 4.21825,0.461728 0.27283,-2.14074 0.16789,-4.386419 -0.1469,-6.506172 -0.48269,-2.2246917 -1.25918,-4.3444448 -2.79119,-6.1074077 z"
           id="path7"
           fill="#100d0b"
           fill-rule="nonzero" />
        <path
           d="m 73.43127,10.82963 c 4.533053,-0.02099 8.64638,1.658024 12.339979,4.155555 2.812172,1.993827 5.330535,4.344445 7.429171,7.093827 2.896117,-0.71358 5.834207,-0.902469 8.79328,-1.133333 6.08605,-0.188889 12.29801,0.503704 18.11123,2.32963 -1.23819,-0.965432 -2.62329,-1.720988 -3.86149,-2.68642 0.88143,-1.490124 1.09129,-3.127161 1.02833,-4.848148 0.021,-1.175309 -0.31479,-2.245679 -0.71353,-3.337037 0.71353,0.293827 1.36411,0.797531 1.9937,1.217284 1.9937,1.364197 3.77755,3.169135 5.05771,5.225926 0.98636,1.574074 1.49003,3.316049 1.55299,5.162962 1.02834,1.97284 2.07765,4.071605 2.70724,6.233334 0.27283,1.007407 0.4617,2.098765 0.084,3.106173 -0.25184,0.71358 -0.65058,1.42716 -1.13326,1.993827 -0.65058,0.671605 -1.21721,1.364197 -2.22456,1.490123 -0.39874,0.06296 -0.67156,-0.146913 -1.00734,-0.293827 0.042,0.881482 0.37775,1.7 0.81846,2.455556 1.84681,3.169135 4.42813,6.023456 6.48479,9.045679 0.56663,1.133333 1.46904,1.930864 1.88877,3.12716 0.60861,1.825926 -0.16789,3.903704 -1.76285,4.974074 -0.7765,0.545679 -1.63694,0.860494 -2.60231,0.62963 -0.81847,-0.335803 -1.61595,-1.280247 -1.42707,-2.224691 0.12592,-0.734568 0.65058,-1.196297 1.17523,-1.7 0.81847,-0.818519 1.76286,-1.34321 2.47639,-2.308642 -0.6086,0.188888 -1.15425,0.44074 -1.80482,0.419753 -1.8468,0.06296 -3.60966,-0.377778 -5.45646,-0.419753 -1.09129,0 -2.09863,0.209876 -3.14795,0.419753 1.23819,0.755555 2.51836,1.259259 3.58867,2.287654 0.54564,0.524691 1.04932,1.112346 0.96537,1.930864 -0.10493,0.671605 -0.73452,1.133334 -1.30115,1.427161 -1.80483,0.923456 -3.65163,1.112345 -5.58238,1.532098 -3.86149,0.923457 -7.57607,2.707408 -10.97586,4.722223 -0.39874,0.209876 -0.90242,0.71358 -1.36411,0.650617 -0.54565,-0.398766 -1.11228,-0.860494 -1.553,-1.385185 -0.46169,-0.566667 -0.23084,-1.280247 0.25184,-1.720988 1.78384,-1.154321 3.71459,-1.951852 5.70829,-2.665432 2.70724,-0.881481 5.45645,-1.532099 8.33159,-1.658025 -5.37251,0.04198 -10.95488,1.280247 -15.63484,3.945679 -0.14691,0.04198 -0.27283,0.08395 -0.41973,0.125926 -0.29381,-0.650617 -0.79748,-1.133333 -0.69255,-1.867901 0.021,-0.566667 0.73452,-0.965432 1.19622,-1.154321 4.617,-2.077778 9.90556,-2.791358 14.9213,-2.476543 -1.57397,-0.27284 -3.21091,-0.251852 -4.80587,-0.314815 -3.81952,0 -7.76496,0.608642 -11.33264,2.035802 -0.23085,0.08395 -0.48268,0.146914 -0.71353,0.209877 0.021,-0.965432 -0.25184,-2.287654 0.77649,-2.875309 1.17524,-0.482716 2.49738,-0.671604 3.73557,-0.923456 4.30221,-0.545679 8.75132,-0.314815 12.96958,0.755555 -0.9234,-0.335802 -1.90976,-0.482716 -2.85415,-0.776543 -4.34418,-0.965432 -8.94019,-1.34321 -13.32634,-0.461728 -1.42707,1.762962 -2.497374,3.651851 -2.560334,5.981481 0,2.434568 1.133264,4.428395 2.644284,6.254321 2.32948,2.602469 5.24659,4.533333 8.28961,6.191358 0.3148,0.167901 0.58762,0.377778 0.83945,0.608642 -1.34312,0.06296 -2.60231,0.06296 -3.92444,0.35679 -2.45541,0.503704 -4.9318,1.34321 -6.75761,3.127161 -1.532007,1.42716 -2.49738,3.420987 -2.665271,5.498765 -0.188877,1.049383 0.02099,2.014815 0.125919,3.04321 0.356768,1.993827 1.217208,3.693827 2.182582,5.435802 C 98.824764,88.190123 97.439664,87.41358 96.096537,86.574074 92.549843,84.202469 89.695698,80.907407 87.743966,77.12963 86.610703,74.925926 85.666317,72.554321 85.120672,70.140741 L 84.847849,69.97284 c -0.06296,2.581481 0.272823,5.099999 0.9234,7.576543 C 85.351522,77.21358 84.952781,76.85679 84.596013,76.458025 83.273872,75.051852 81.993704,73.519753 81.070304,71.819753 79.5383,69.238272 78.719832,66.3 78.551941,63.298765 c -0.125918,-3.043209 0.4617,-6.128395 1.427073,-9.003703 0.818468,-2.728395 2.623295,-5.141976 4.889821,-6.841976 3.672613,-2.707407 8.079748,-3.75679 12.570829,-3.966666 -2.812172,-2.371605 -6.211962,-4.134568 -9.73767,-5.183951 -4.155299,-1.301234 -9.10808,-1.385185 -13.032529,0.62963 0.671563,-1.406173 1.448059,-2.854321 2.455404,-4.071605 0.881427,-1.049383 1.762854,-2.077778 2.770199,-3.001235 -2.644281,0.440741 -5.01574,1.637037 -7.345225,2.875309 0.188877,-0.188889 0.356768,-0.35679 0.566631,-0.524692 2.917104,-2.41358 5.813222,-4.806172 8.730326,-7.219753 0.86044,-0.692592 0.986358,-1.720987 1.007345,-2.77037 0.02099,-1.7 -0.587618,-3.211111 -1.364114,-4.680247 -1.217208,-2.308642 -2.854144,-4.365432 -4.763903,-6.149382 -0.860441,-0.839507 -1.762854,-1.61605 -2.770199,-2.24568 -0.209864,-0.02099 -0.419727,-0.08395 -0.524659,-0.314814 z"
           id="path9"
           fill="#a4a5a9"
           fill-rule="nonzero" />
        <path
           d="m 70.577125,11.144444 c 2.371458,1.825926 4.281217,4.050618 6.044071,6.464198 1.091291,1.595062 2.056663,3.337037 2.392445,5.267901 0.356768,1.301235 0.251836,2.539506 -0.335782,3.75679 -0.104931,-0.671605 -0.209863,-1.34321 -0.461699,-1.972839 -0.209864,-0.482716 -0.29381,-0.98642 -0.839455,-1.217284 -0.08394,1.049383 0.02099,1.972839 -0.272823,2.980247 -0.06296,0.209876 -0.272822,0.398765 -0.419727,0.566666 -0.377754,-0.314814 -0.734522,-0.629629 -1.196222,-0.839506 -0.398741,1.091358 -0.293809,2.161729 -0.818468,3.190124 -0.755509,1.511111 -1.573977,3.001234 -2.497377,4.428395 -0.524659,0.797531 -1.15425,1.511111 -1.930745,2.077778 C 69.632739,34 69.73767,32.132099 69.80063,30.222222 c 0.104931,-1.595062 0.314795,-3.190123 0.4617,-4.785185 0.356768,-1.909877 0.545645,-3.840741 0.797481,-5.771605 0.272823,-1.574074 0.419727,-3.169136 0.398741,-4.764197 -0.04197,-1.385186 0.04197,-2.623457 -0.881427,-3.756791 z"
           id="path11"
           fill="#9a112b"
           fill-rule="nonzero" />
        <path
           d="m 91.752361,32.65679 c 5.225603,1.448148 10.493179,3.022222 15.508919,5.079012 1.49003,0.524692 3.31584,1.007408 4.80588,0.27284 0.58761,-0.230864 0.77649,-0.755556 1.25918,-1.091358 0.25183,0.839506 0.021,1.385185 -0.54565,2.014815 -0.39874,0.35679 -0.20986,0.734568 -0.0839,1.175308 0.98636,2.350618 2.70724,4.470371 3.8405,6.674074 0.41973,0.797531 0.56663,1.637037 0.86044,2.455556 -3.48373,-2.245679 -7.49213,-3.567901 -11.64743,-3.67284 -3.50472,-0.209876 -7.030428,0.314815 -10.367259,1.364198 1.217209,-0.62963 2.413431,-1.217284 3.693599,-1.679012 3.14795,-1.175309 6.42183,-1.322223 9.61175,-1.951852 -0.1469,-0.08395 -0.27282,-0.125926 -0.41972,-0.146914 -1.36412,-0.146913 -2.68626,-0.419753 -4.02939,-0.566666 -1.72088,-0.335803 -3.73557,-0.398766 -5.372503,-1.028395 C 95.446,39.81358 92.465937,36.497531 91.752401,32.65679 Z"
           id="path13"
           fill="#100d0b"
           fill-rule="nonzero" />
        <path
           d="m 75.508919,35.133333 c -2.203568,1.909877 -3.588667,4.554321 -3.924449,7.471605 0.545645,-0.08395 1.028332,-0.314815 1.511018,-0.545679 1.951731,-0.923457 4.050367,-1.553086 6.211962,-1.7 1.783841,-0.314815 3.483736,-0.02099 5.24659,0.209877 1.490031,0.314815 3.064008,0.692592 4.386149,1.448148 -1.322141,0.272839 -2.644281,0.734568 -3.86149,1.322222 -2.014691,1.049383 -3.777545,2.518519 -5.183631,4.281482 -2.056663,2.749382 -3.231899,6.191358 -3.756558,9.549382 -0.440714,1.993827 -0.377754,4.176544 -0.314795,6.212346 0.04197,1.553086 0.314795,3.085185 0.776495,4.575309 0.776495,2.749382 2.056663,5.309876 3.756558,7.597531 1.15425,1.448148 2.266527,2.875308 3.693599,4.071605 1.280168,1.175308 2.665268,2.14074 4.071354,3.12716 -2.728227,-0.755556 -5.309549,-1.720988 -7.869885,-2.959259 -3.357817,-1.511111 -6.484785,-3.588889 -9.233998,-6.044445 -2.140608,-1.972839 -3.966421,-4.449382 -4.994753,-7.177778 -0.9234,-2.791358 -1.322141,-5.729629 -1.070304,-8.646913 0.23085,-2.854321 1.238195,-5.708642 2.917104,-8.059259 0.776495,-1.238272 1.825813,-2.098766 2.812172,-3.148148 -0.944387,0.44074 -1.8468,0.944444 -2.623295,1.658024 -2.098636,1.595062 -3.819518,3.735803 -5.267576,5.918519 0.23085,-1.112346 0.293809,-2.224692 0.566631,-3.337037 0.566632,-2.077778 1.238196,-4.239506 2.245541,-6.149383 1.657922,-3.295062 3.945435,-6.191358 7.072403,-8.206173 0.881427,-0.650617 1.867786,-1.007407 2.833158,-1.469136 z"
           id="path15"
           fill="#9a112b"
           fill-rule="nonzero" />
        <path
           d="m 128.16369,36.266667 c 0,0.965432 -0.10493,2.287654 -0.94438,2.917284 -0.69255,0.02099 -0.94439,-0.188889 -1.44806,-0.587655 0.50367,-0.965432 1.57398,-1.637037 2.39244,-2.329629 z"
           id="path17"
           fill="#9a112b"
           fill-rule="nonzero" />
        <path
           d="m 99.916055,37.169136 c 0.293805,0.02099 0.587615,0.06296 0.860435,0.167901 1.88878,0.797531 3.79854,1.532099 5.77125,2.140741 0,0.671605 0,1.34321 0.042,2.014815 -0.58762,-0.02099 -1.15425,-0.02099 -1.74187,-0.104939 -1.49003,-0.251852 -2.79119,-1.112345 -3.8405,-2.161728 -0.48269,-0.62963 -1.091295,-1.238272 -1.091295,-2.05679 z"
           id="path19"
           fill="#9a112b"
           fill-rule="nonzero" />
        <path
           d="m 109.65372,39.540741 c -0.33578,1.196296 -1.42707,1.846913 -2.64428,1.78395 0.37776,-0.503703 0.65058,-1.007407 0.90242,-1.553086 0.58762,-0.104938 1.17523,-0.188889 1.74186,-0.230864 z"
           id="path21"
           fill="#9a112b"
           fill-rule="nonzero" />
        <path
           d="m 126.33788,58.408642 c 1.13326,0.02099 2.26653,0.209876 3.29486,0.71358 -0.20987,1.196297 -1.19622,2.308642 -1.97272,3.211111 0.021,-0.902469 -0.063,-1.406173 -0.50367,-2.203703 -1.02833,-0.35679 -1.88877,-0.02099 -2.91711,0 -1.19622,0.06296 -2.32948,0.377777 -3.5257,0.524691 -0.54565,0.104938 -1.17524,0.167901 -1.67891,0.398765 -0.44072,0.419753 -0.7765,0.944445 -1.02833,1.511111 -0.27283,0.608643 -0.20987,1.364198 -0.20987,2.014815 -1.34312,-0.860493 -1.90976,-2.749382 -2.28751,-4.218518 3.39979,-1.070371 7.19832,-2.077778 10.82896,-1.951852 z"
           id="path23"
           fill="#fefefe"
           fill-rule="nonzero" />
        <path
           d="m 125.24659,67.01358 0.063,-0.06296 c 0.021,1.196297 -0.37776,2.518519 -1.36411,3.274074 -0.65058,0.461729 -1.61595,0.482716 -2.37146,0.734568 -1.99371,0.293827 -3.75656,0.734568 -5.79224,0.461729 -0.23085,-0.125926 -0.44071,-0.293827 -0.65058,-0.440741 0,-1.34321 0.56664,-2.833333 1.82582,-3.483951 -0.10493,1.049383 0.20986,1.658025 0.75551,2.497531 1.40608,0.335803 3.00105,0.146914 4.42812,-0.02099 1.0703,-0.104939 1.90976,-0.944445 2.43442,-1.825926 0.20986,-0.377778 0.37775,-0.839507 0.67156,-1.133334 z"
           id="path25"
           fill="#fefefe"
           fill-rule="nonzero" />
        <path
           d="m 124.617,72.638272 c 0.52466,1.154321 0.50367,2.560493 0.25184,3.777777 -0.35677,1.741976 -1.44806,3.379013 -2.6233,4.701235 -1.80483,1.888889 -4.00839,3.4 -6.27492,4.638272 -0.063,-1.196297 0.042,-2.308642 -0.39874,-3.462963 -0.37776,-1.280247 -1.21721,-2.371605 -2.47639,-2.854321 -1.97272,-0.671605 -4.09234,-0.335803 -6.04407,0.230864 -1.97272,0.650617 -4.02938,1.825926 -4.80588,3.861728 -0.37775,0.881482 -0.31479,1.762963 -0.12592,2.665432 -0.29381,-0.503703 -0.44071,-1.049382 -0.54564,-1.637037 -0.16789,-1.07037 -0.35677,-2.098765 -0.12592,-3.169135 0.18888,-1.867902 1.04932,-3.588889 2.4554,-4.827161 1.55299,-1.406173 3.63064,-2.014815 5.64533,-2.371605 2.35048,-0.293827 4.59602,-0.104938 6.94649,-0.146914 0.83945,-0.02099 1.67891,-0.125925 2.51836,-0.146913 1.97272,-0.146914 3.79853,-0.230864 5.60336,-1.259259 z"
           id="path27"
           fill="#a4a5a9"
           fill-rule="nonzero" />
        <path
           d="m 19.580273,82.565432 c 0.398741,-0.06296 0.797482,-0.04198 1.196222,-0.04198 2.93809,0.04198 5.876181,-0.04198 8.814271,0.02099 -0.629591,1.175309 -1.469045,2.287655 -2.182581,3.420988 -0.167891,0.293827 -0.356768,0.608642 -0.398741,0.944444 -0.188877,2.308643 -0.209864,4.596297 -0.293809,6.904939 -0.251837,1.888889 -0.06296,3.798765 -0.293809,5.666666 -0.104932,1.112351 0,2.245681 -0.125918,3.358031 -0.293809,2.14074 -0.104932,4.34444 -0.314796,6.50617 0.02099,1.23827 -0.06296,2.45556 -0.08394,3.67284 -1.993704,0.063 -4.050367,0.084 -6.044072,0 0.23085,-2.05679 0.398741,-4.15556 0.398741,-6.23333 -1.007345,-0.042 -2.01469,-0.021 -3.043022,-0.021 -0.335782,0.021 -0.755509,-0.042 -1.070304,0.084 -0.69255,2.09876 -1.594963,3.96666 -2.035677,6.19136 -1.55299,0.0839 -3.126967,-0.063 -4.6589715,0.10493 -0.4826863,0.042 -0.9863589,-0.063 -1.4480588,-0.12592 0.6715635,-2.24568 1.5949633,-4.38642 2.3504723,-6.61111 1.8468,-5.28889 3.987408,-10.367906 5.981112,-15.593832 1.112277,-2.728395 2.119622,-5.54074 3.252886,-8.248148 z"
           id="path29"
           fill="#9a112b"
           fill-rule="nonzero" />
        <path
           d="m 34.900315,82.523457 c 1.909759,0 3.840504,0.02099 5.750262,0 0.209864,1.238271 0.146905,2.497531 0.188877,3.75679 0.167891,1.385185 0.146905,2.791358 0.209864,4.197531 -0.04197,1.616049 0.188877,3.211111 0.167891,4.82716 0,0.419753 0.06296,0.839506 0.167891,1.238272 0.272822,-1.028395 0.545645,-2.035803 0.713536,-3.085185 0.776495,-3.630864 1.511018,-7.261729 2.308499,-10.892593 1.825814,-0.06296 3.651627,-0.02099 5.498426,-0.02099 -0.23085,1.532099 -0.671563,3.04321 -0.923399,4.575309 -1.8468,8.646914 -3.651627,17.209879 -5.498426,25.919759 -1.930745,0.0839 -3.882477,0.042 -5.813222,0.021 -0.02099,-0.60864 0,-1.1753 -0.08394,-1.78395 -0.167891,-0.98642 -0.06296,-1.95185 -0.146905,-2.95926 -0.08394,-1.32222 -0.02099,-2.66543 -0.104932,-3.98765 -0.209863,-1.67901 0,-3.35803 -0.314795,-5.037039 -0.167891,1.091359 -0.4617,2.161729 -0.69255,3.253089 -0.629591,3.04321 -1.280168,6.08642 -1.930745,9.12963 -0.08394,0.46173 -0.125918,0.92346 -0.146904,1.38518 -1.888773,0.021 -3.798531,0.063 -5.687304,0 0.02099,-0.46172 0.04197,-0.92345 0.146905,-1.38518 1.028331,-4.7642 1.993704,-9.5284 3.022036,-14.271608 1.007345,-4.974074 2.182581,-9.927161 3.16894,-14.880247 z"
           id="path31"
           fill="#9a112b"
           fill-rule="nonzero" />
        <path
           d="m 54.312697,82.565432 c 1.930745,-0.125926 3.903463,-0.04198 5.855194,-0.04198 0.167891,0.965432 0.08394,1.888889 0.146904,2.896296 0.06296,1.049383 0.04197,2.098765 0.08395,3.148148 0.167891,1.322223 0.104932,2.644445 0.167891,3.987655 0.02099,0.839506 0.209863,1.679012 0.188877,2.518518 0.02099,0.398766 -0.06296,0.755556 0.293809,1.028395 0.503673,-2.287654 0.902413,-4.596296 1.448059,-6.88395 0.545645,-2.224692 0.9234,-4.491359 1.427072,-6.71605 1.825813,-0.02099 3.672613,-0.02099 5.498426,0 -2.077649,10.158025 -4.302203,20.337046 -6.442812,30.495066 -1.888772,0 -3.945436,0.39877 -5.792235,0 -0.209864,-1.97284 -0.209864,-3.96667 -0.188877,-5.9395 -0.06296,0.084 -0.125919,0.18888 -0.188877,0.27283 0.08394,-1.72098 -0.08395,-3.42098 -0.06296,-5.14197 0.02099,-0.98642 -0.104931,-1.95185 -0.209863,-2.938278 -0.986359,4.575318 -1.909759,9.171608 -2.917104,13.746918 -1.888772,0.12593 -3.798531,0.042 -5.70829,0.042 1.15425,-5.30988 2.224554,-10.59877 3.378804,-15.866676 0.23085,-1.532098 0.69255,-3.001234 0.944386,-4.512345 0.650577,-3.358025 1.448059,-6.71605 2.07765,-10.095062 z"
           id="path33"
           fill="#9a112b"
           fill-rule="nonzero" />
        <path
           d="m 77.397691,82.565432 c 0.587618,-0.125926 1.322141,-0.125926 1.8468,0.230864 1.825813,1.049383 3.735572,1.846914 5.624344,2.728395 0.04197,0.734568 -0.06296,1.469136 -0.104932,2.203704 -0.02099,1.637037 -0.06296,3.295062 -0.146904,4.932099 -0.167891,1.091358 -0.104932,2.203704 -0.146905,3.295062 -0.02099,1.112345 -0.188877,2.203703 -0.16789,3.316049 -0.08395,1.511115 0,3.001235 -0.23085,4.491355 -0.04197,2.35062 -0.188878,4.68025 -0.251837,7.05185 -0.04197,0.73457 -0.188877,1.46914 -0.146904,2.20371 -0.755509,0.12592 -1.469045,0.12592 -2.224554,0.042 -1.280168,-0.10493 -2.413432,0.29383 -3.672613,-0.042 0.06296,-2.05679 0.398741,-4.15556 0.335782,-6.23333 -1.343127,-0.084 -2.686254,-0.042 -4.029381,-0.042 -0.839455,2.07778 -1.490032,4.23951 -2.392445,6.27531 -1.909759,0.063 -3.840504,0.042 -5.750262,0.021 0.06296,-0.50371 0.188877,-0.96544 0.377754,-1.42716 0.755509,-1.99383 1.448059,-4.02963 2.182581,-6.04445 2.812172,-7.702468 5.93914,-15.320986 8.898216,-23.002468 z"
           id="path35"
           fill="#9a112b"
           fill-rule="nonzero" />
        <path
           d="m 131.98321,82.58642 c 0.90241,-0.104939 1.8468,-0.04198 2.74921,-0.04198 1.63694,0.02099 3.27388,-0.04197 4.91081,0.02099 -0.021,0.608642 0,1.217284 -0.042,1.825926 -0.29381,1.720988 -0.063,3.504938 -0.27282,5.246914 -0.0839,2.728395 -0.021,5.45679 -0.25184,8.185185 -0.0839,1.741975 0.021,3.504945 -0.18888,5.246915 -0.0839,1.04938 -0.042,2.09877 -0.18887,3.14815 -0.14691,0.98642 -0.0839,1.97284 -0.1679,2.98024 -0.10493,1.28025 -0.12591,2.5605 -0.18887,3.84075 -1.95173,0.063 -3.92445,0.042 -5.87618,0.042 -0.23085,-0.48271 -0.063,-0.90247 0,-1.40617 0.18887,-1.07037 0.0839,-2.07778 0.18887,-3.14815 0.042,-0.48272 0.10494,-1.00741 0.063,-1.49012 -0.1469,-0.44074 -0.54564,-0.25185 -0.90241,-0.29383 -1.04932,0.063 -2.09864,-0.021 -3.14795,0.042 -0.3148,0.39876 -0.33579,1.11234 -0.58762,1.59506 -0.69255,1.5321 -1.04932,3.16913 -1.78384,4.65926 -1.93075,0.021 -3.88248,0.021 -5.81322,0 0.16789,-0.83951 0.54564,-1.65803 0.81846,-2.47655 1.42708,-3.9037 2.79119,-7.8074 4.32319,-11.669135 1.44806,-3.609876 2.85415,-7.219753 4.23925,-10.850617 0.73452,-1.804938 1.42707,-3.630864 2.11962,-5.45679 z"
           id="path37"
           fill="#9a112b"
           fill-rule="nonzero" />
        <path
           d="m 147.59706,82.565432 c 1.93075,-0.104938 3.88248,-0.02099 5.81322,-0.04198 1.46905,0.02099 3.085,-0.146914 4.4701,0.293827 1.19622,0.335802 2.24554,1.091358 2.79118,2.224691 0.52466,1.007408 0.39874,2.371605 0.3148,3.483951 -0.25184,1.42716 -0.69255,2.812346 -0.90242,4.239506 -0.31479,1.867901 -0.88142,3.651852 -2.41343,4.869136 -0.77649,0.776543 -1.78384,1.007407 -2.66526,1.574074 0.90241,4.596303 1.69989,9.192603 2.56033,13.788883 -0.4617,0.063 -0.94438,0.14692 -1.40608,0.12593 -1.63694,-0.14692 -3.29486,-0.021 -4.95278,-0.10494 -0.39875,-2.98025 -0.50368,-5.96049 -0.83946,-8.94074 -0.16789,-1.25926 -0.0839,-2.5605 -0.39874,-3.77778 -0.29381,0.10494 -0.29381,0.3568 -0.37775,0.62964 -0.50368,2.37161 -0.96538,4.7642 -1.49004,7.1358 -0.41972,1.55309 -0.56663,3.21111 -1.04931,4.74321 -0.063,0.29383 -0.52466,0.20988 -0.73453,0.23087 -1.72088,0 -3.44176,0 -5.16264,-0.021 2.09864,-9.92716 4.28122,-20.420994 6.44281,-30.453093 z"
           id="path39"
           fill="#9a112b"
           fill-rule="nonzero" />
        <path
           d="m 166.77859,82.544444 c 1.95173,-0.08395 3.92445,-0.04197 5.87618,0 -1.15425,5.498766 -2.28751,11.018519 -3.48373,16.517284 -0.62959,3.169132 -1.30116,6.359262 -2.01469,9.507412 -0.33578,1.49012 -0.58762,3.00123 -0.98636,4.49135 -0.9234,0.31482 -1.72088,-0.021 -2.66527,0 -1.04932,0 -2.07765,0.021 -3.12697,0 0.042,-0.39876 0.063,-0.79753 0.16789,-1.19629 0.52466,-2.14074 0.9234,-4.32346 1.40609,-6.4642 0.39874,-2.41358 1.07031,-4.7642 1.49003,-7.177778 0.62959,-2.938271 1.2382,-5.897531 1.90976,-8.814815 0.23085,-1.343209 0.52466,-2.665432 0.83946,-3.987654 0.16789,-0.965432 0.33578,-1.909876 0.58761,-2.875309 z"
           id="path41"
           fill="#9a112b"
           fill-rule="nonzero" />
        <path
           d="m 180.90241,82.523457 c 3.085,0 6.16999,-0.02099 9.25499,0.02099 -0.35677,1.070371 -1.07031,1.909877 -1.49003,2.95926 -0.39875,0.881481 -1.2382,1.658024 -1.13327,2.665432 0.021,2.203703 -0.20986,4.365432 -0.29381,6.548148 -0.16789,1.972839 -0.10493,3.966667 -0.25183,5.939503 -0.14691,1.28025 -0.12592,2.60247 -0.14691,3.88272 -0.18887,2.83333 -0.27282,5.66666 -0.18887,8.52098 -2.0147,0.063 -4.09234,0.063 -6.10704,0 0.021,-0.60864 0.021,-1.23827 0.084,-1.84691 0.18888,-1.42716 0.16789,-2.8963 0.20986,-4.32346 -1.30115,-0.18889 -2.64428,0 -3.96642,-0.10493 -0.96537,1.97284 -1.57397,4.15555 -2.20357,6.2753 -1.97271,0.12593 -3.94543,0 -5.91815,0.042 -0.021,-0.71358 0.23085,-1.30123 0.50367,-1.95185 1.25919,-3.37902 2.41344,-6.8 3.71459,-10.15803 2.39245,-6.002464 4.78489,-12.214809 7.15635,-18.238266 0.042,-0.314815 0.56663,-0.188889 0.77649,-0.230864 z"
           id="path43"
           fill="#9a112b"
           fill-rule="nonzero" />
        <path
           d="m 108.26863,82.691358 c 0.25183,0.797531 0.10493,1.490124 0.16789,2.308642 0.39874,3.127161 0,6.317284 0.37775,9.444444 0,1.25926 0.063,2.518519 0.042,3.777778 0.084,0.902469 0.18888,1.804938 0.14691,2.728398 0.20986,-0.35679 0.41973,-0.71358 0.56663,-1.091361 1.13326,-2.68642 2.39245,-5.330864 3.50472,-8.017284 0.20986,-0.419753 0.62959,-0.566666 1.00735,-0.776543 1.30115,-0.650617 2.51836,-1.448148 3.81951,-2.077778 1.93075,-1.091358 3.77755,-2.287654 5.43547,-3.735802 0,0.650617 -0.12592,1.280247 -0.29381,1.930864 -1.13326,5.645679 -2.43442,11.291358 -3.56768,16.937034 -0.69255,2.98025 -1.21721,5.98149 -1.93074,8.94074 -1.86779,0.063 -3.77755,0.063 -5.64533,0 0.65057,-3.63086 1.55299,-7.19876 2.26652,-10.82963 0.23085,-1.32222 0.62959,-2.64444 0.73453,-3.98765 -0.35677,0.944444 -0.75551,1.84691 -1.15425,2.77037 -1.72089,4.00864 -3.39979,8.05926 -5.16265,12.0679 -1.40608,0.021 -2.83316,0.084 -4.21826,-0.063 0.042,-1.28025 0.063,-2.56049 0,-3.86173 -0.042,-2.79136 0,-5.58272 0,-8.39506 0,-0.71358 0.042,-1.427162 -0.063,-2.140742 -0.37775,0.419753 -0.39874,1.112345 -0.54564,1.637042 -0.9234,4.26049 -1.82581,8.56296 -2.72823,12.80246 -1.888771,0 -3.798529,0.042 -5.708288,-0.021 0.272823,-1.82593 0.734522,-3.65186 1.15425,-5.45679 0.482686,-2.32963 0.944386,-4.68025 1.490031,-6.98889 0.671564,-3.148151 1.301154,-6.296299 2.014691,-9.444447 1.154246,0.188889 2.308496,0.314814 3.483736,0.230864 0.25184,-0.02099 0.3148,-0.188889 0.23085,-0.503704 -0.48269,-1.658024 0.25184,-3.211111 0.98636,-4.659259 0.88143,-1.385185 2.07765,-2.812346 3.58867,-3.525926 z"
           id="path45"
           fill="#9a112b"
           fill-rule="nonzero" />
        <path
           d="m 31.668415,84.538272 c -0.692549,3.462963 -1.469045,6.967901 -2.182581,10.451851 -0.125918,-1.385185 0.02099,-2.686419 0.02099,-4.092592 -0.02099,-0.98642 0.188877,-1.951852 0.16789,-2.938272 -0.02099,-0.440741 0.188878,-0.797531 0.440714,-1.154321 0.545645,-0.755555 0.965372,-1.574074 1.55299,-2.266666 z"
           id="path47"
           fill="#fefefe"
           fill-rule="nonzero" />
        <path
           d="m 153.20042,87.434568 c 0.52466,0 1.00734,0 1.49003,0.251852 0.41973,0.524691 0.37776,1.091358 0.23085,1.7 -0.37775,1.490123 -0.58762,3.001234 -0.98636,4.491358 -0.29381,1.259259 -2.03567,1.825926 -3.10598,1.217284 0.56663,-2.455556 1.04932,-4.911111 1.57398,-7.366667 0,-0.377778 0.54564,-0.251852 0.79748,-0.293827 z"
           id="path49"
           fill="#100d0b"
           fill-rule="nonzero" />
        <path
           d="m 181.63694,93.5 v 0 0.06296 0.02099 c 0.10493,1.637037 -0.23085,3.211111 -0.23085,4.848148 0.021,1.112345 -0.14691,2.224692 -0.18888,3.337042 -0.86044,0.14691 -1.65792,0.063 -2.51836,0.042 0.021,-0.77654 0.48268,-1.55308 0.71353,-2.308642 0.71354,-1.993827 1.3851,-3.987654 2.20357,-5.960494 z"
           id="path51"
           fill="#100d0b"
           fill-rule="nonzero" />
        <path
           d="m 78.84575,93.562963 c 0.125918,0.545679 0.104932,1.07037 0.04197,1.616049 -0.08395,0.734568 -0.02099,1.469136 -0.146904,2.203704 -0.272823,1.427161 -0.06296,2.896294 -0.314796,4.344444 -0.839454,0.12593 -1.678909,0.12593 -2.539349,0.063 0.356768,-1.51111 1.049318,-2.959256 1.511017,-4.449379 0.503673,-1.238272 0.881428,-2.560494 1.448059,-3.777778 z"
           id="path53"
           fill="#100d0b"
           fill-rule="nonzero" />
        <path
           d="m 133.3893,93.751852 c 0.16789,1.595062 -0.063,3.274074 -0.20987,4.890123 -0.042,1.049383 -0.042,2.098765 -0.18887,3.127165 -0.81847,0.084 -1.63694,0.10493 -2.45541,0 0.063,-0.77655 0.39874,-1.42716 0.65058,-2.140745 0.48269,-1.364198 1.02833,-2.707407 1.49003,-4.092592 0.20986,-0.587655 0.33578,-1.280247 0.71354,-1.783951 z"
           id="path55"
           fill="#100d0b"
           fill-rule="nonzero" />
        <path
           d="m 20.986359,93.982716 c 0.04197,0.35679 0.06296,0.734568 0.06296,1.091358 -0.125918,2.182716 -0.440714,4.323457 -0.419727,6.527166 l -0.104932,0.14691 c -0.734523,0.23086 -1.61595,0.063 -2.392445,0.12592 -0.167891,-0.39876 0.146905,-0.96543 0.251836,-1.36419 0.734523,-1.930868 1.406086,-3.903707 2.140609,-5.834571 0.125918,-0.293827 0.167891,-0.545679 0.4617,-0.692593 z"
           id="path57"
           fill="#100d0b"
           fill-rule="nonzero" />
        <path
           d="m 160.54564,98.641975 c -0.4617,2.329625 -0.94438,4.659265 -1.46904,6.967905 -0.37775,-0.65062 -0.29381,-1.28025 -0.4617,-1.99383 -0.23085,-0.96543 -0.35677,-1.95185 -0.52466,-2.93827 0.9234,-0.52469 1.6999,-1.259261 2.4554,-2.035805 z"
           id="path59"
           fill="#fefefe"
           fill-rule="nonzero" />
      </g>
    </g>
  </g>
</svg>
