<?xml version="1.0" encoding="UTF-8"?>
<svg xmlns="http://www.w3.org/2000/svg" xmlns:xlink="http://www.w3.org/1999/xlink" width="400px" height="500px" viewBox="0 0 400 500" version="1.1">
<g id="surface1">
<path style=" stroke:none;fill-rule:nonzero;fill:rgb(100%,100%,100%);fill-opacity:1;" d="M 70.484375 135.34375 C 70.296875 135.5625 70.175781 135.710938 70.117188 135.785156 C 70.175781 135.710938 70.308594 135.5625 70.484375 135.34375 Z M 70.484375 135.34375 "/>
<path style=" stroke:none;fill-rule:nonzero;fill:rgb(85.09804%,85.09804%,83.92157%);fill-opacity:1;" d="M 75.320312 382.746094 L 12.128906 415.835938 C 127.027344 563.074219 348.257812 502.988281 386.625 344.761719 C 262.457031 500.003906 125.011719 430.402344 75.320312 382.746094 Z M 159.664062 209.238281 C 164.351562 175.042969 141.398438 149.042969 141.398438 149.042969 C 235.921875 84.785156 310.679688 167.558594 310.679688 167.558594 L 398.757812 79.476562 C 348.394531 104.726562 325.984375 90.921875 325.984375 90.921875 C 199.46875 10.855469 99.375 104.109375 75.496094 129.699219 C 75.449219 129.742188 75.410156 129.773438 75.394531 129.816406 C 74.796875 130.460938 74.238281 131.078125 73.730469 131.628906 C 72.125 133.394531 71.042969 134.683594 70.484375 135.34375 C 70.308594 135.558594 70.175781 135.707031 70.117188 135.78125 C 70.089844 135.828125 70.074219 135.839844 70.074219 135.839844 C 81.632812 146.253906 106.304688 167.550781 97.765625 227.132812 L 75.320312 382.738281 L 138.570312 349.652344 L 159.664062 209.234375 Z M 159.664062 209.238281 "/>
<path style=" stroke:none;fill-rule:nonzero;fill:rgb(100%,100%,100%);fill-opacity:1;" d="M 138.570312 349.652344 L 75.320312 382.738281 C 125.011719 430.394531 262.457031 499.992188 386.625 344.753906 C 232.339844 446.722656 138.570312 349.652344 138.570312 349.652344 Z M 70.074219 135.839844 C 70.074219 135.839844 70.089844 135.828125 70.117188 135.78125 C 70.175781 135.707031 70.296875 135.558594 70.484375 135.34375 C 71.035156 134.6875 72.117188 133.402344 73.730469 131.628906 C 74.226562 131.078125 74.785156 130.472656 75.394531 129.816406 C 75.410156 129.773438 75.449219 129.742188 75.496094 129.699219 C 99.375 104.109375 199.46875 10.851562 325.984375 90.917969 C 325.984375 90.917969 348.394531 104.726562 398.757812 79.472656 C 176.226562 -123.457031 0 126.28125 0 126.28125 C 0 126.28125 47.078125 164.25 39.789062 220.929688 L 12.128906 415.832031 L 75.320312 382.746094 L 97.765625 227.136719 C 106.296875 167.558594 81.632812 146.257812 70.074219 135.84375 Z M 70.074219 135.839844 "/>
</g>
</svg>
