<svg height="233.853587" viewBox="0 0 640.33 350.56" width="427.617987" xmlns="http://www.w3.org/2000/svg"><g fill="#fff"><path d="m75.23 179.41c1.15-1.12 2.33-2.19 3.49-3.28v23.8c10.99-21.03 28.02-36.64 49.79-57.72 1.16-1.12 2.33-2.19 3.49-3.29v23.8c8.64-16.52 21-29.71 36.46-44.81-.39 0-.77.01-1.16.01-9.87 0-19.04-1.22-27.94-3.71-.85-.24-1.71-.47-2.55-.73-.46-.14-.9-.29-1.35-.43-39.76 23.15-83.32 53.83-111.08 76.52.86 6.21 3.32 15.18 6.07 23.19 1.83 5.33 3.8 10.24 5.52 13.63 10.29-15.68 23.52-31.73 39.27-46.98z"/><path d="m322.99 200.55s-10.73-32.45-45.46-42.97l9.01 11.37c-3.17-1.36-6.46-2.58-9.84-3.62-22.27-6.86-43.9-4.64-55.89 4.38 12.69-1.08 27.88.61 43.51 5.42 22.62 6.97 42.28 19.11 52.57 31.67 2.97 3.63 5.17 7.3 6.42 10.89.31-.69.59-1.4.82-2.13.4-1.29.64-2.61.75-3.95.32-3.61-.37-7.33-1.89-11.05v-.02z"/><path d="m140.63 70.19c4.39-1.46 8.86-3 13.37-4.52 24.85-8.4 51.13-16.41 74.89-9.09.17.05.33.12.5.17 7.93 2.5 15.28 6.15 22 10.5 11.45 7.41 21.12 16.83 28.87 25.97 2.05 2.41 4.35 4.9 6.84 7.06 4.68 4.05 10.02 6.89 15.53 5.71.86-.18 1.73-.47 2.59-.86-1.22-2.2-2.91-5.09-5.02-8.43-1.15-1.82-2.43-3.77-3.84-5.82 0 0 0-.01-.01-.02-.99-1.44-2.04-2.92-3.15-4.44-.02-.03-.04-.06-.06-.08-.53-.73-1.08-1.47-1.65-2.21-.05-.07-.11-.14-.16-.22-1.12-1.48-2.29-2.98-3.52-4.49-.08-.1-.16-.19-.24-.29-.59-.73-1.2-1.46-1.81-2.19-.1-.11-.19-.23-.29-.34-1.26-1.48-2.57-2.98-3.92-4.47-.13-.14-.25-.28-.38-.42-.65-.71-1.32-1.42-2-2.13-.13-.13-.26-.27-.38-.4-.65-.68-1.32-1.36-1.99-2.04-.07-.07-.13-.14-.2-.21-.02-.02-.05-.05-.07-.07-.14-.14-.3-.29-.44-.43-.54-.54-1.09-1.07-1.64-1.6-.17-.16-.33-.32-.5-.48-.72-.68-1.45-1.36-2.19-2.04-.15-.13-.29-.26-.44-.4-.69-.62-1.39-1.23-2.1-1.84-.12-.11-.24-.21-.37-.32-.77-.66-1.55-1.31-2.34-1.95-.2-.16-.39-.32-.59-.48-.79-.64-1.6-1.27-2.41-1.89-.15-.11-.3-.22-.44-.33-.75-.56-1.51-1.12-2.27-1.67-.16-.12-.32-.23-.48-.35-.09-.06-.18-.12-.27-.19-.75-.53-1.51-1.05-2.28-1.56-.21-.14-.43-.28-.64-.42-.88-.57-1.76-1.14-2.65-1.69-.13-.08-.26-.15-.39-.23-.83-.5-1.67-1-2.52-1.48-.19-.11-.37-.21-.56-.32-.92-.51-1.84-1.01-2.78-1.49-.22-.11-.44-.22-.65-.33-.96-.49-1.94-.97-2.92-1.42-.08-.04-.17-.07-.25-.11-.94-.43-1.89-.84-2.85-1.24-.2-.08-.4-.17-.61-.25-1-.41-2-.79-3.02-1.16-.21-.08-.42-.15-.63-.22-1.06-.38-2.13-.74-3.22-1.07-31.15-9.6-66.34 8.03-97.62 16.3-18.49 4.89-35.61 6.51-49.73-2.69 0 0 22.07 27.32 53.94 16.73z"/><path d="m374.28 249.38 9.13 9.25-17.99-3.76c-3.05 2.19-5.7 4.48-7.43 6.59 41.32 9.32 84.1 23.1 84.1 23.1s-31.17-18.4-54.45-40.18c-3.01.19-8.12 2.19-13.36 5z"/><path d="m389.78 163.34c-4.07-.06-8.97-1.1-9.37-7 1.52.62 2.88-.55 2.74-2.13-.4-5-7.93-9.03-10.19-10.1-15.79 9.6 2.91 27.84 16.81 19.23z"/><path d="m388.35 191.01c-7.4.44-15.32-.72-22.89-3.33-10.86-3.75-20.19-10.19-26.28-18.11-1.96-2.56-3.53-5.23-4.7-7.95 0 .02-.02.04-.03.06-1.4 4.06-1.12 8.43.54 12.72 3.2 8.25 11.51 16.17 22.79 20.93 1.14.48 2.32.93 3.52 1.35 12.22 4.22 29.22 6.17 37.89 2.16l63.02 15.48-59-26.68c-4.34 1.88-9.35 3.04-14.86 3.36z"/><path d="m609.5 268.37-172.11-94.06c-6.97-8.78-13.64-21.31-10.55-32.24.1-.36.22-.71.33-1.07-7.37-13.28-25.76-22.88-47.64-23.61-.89-.03-1.79-.05-2.69-.05-1.53 0-3.03.07-4.53.16.39-.27.8-.51 1.2-.76 8.66-5.3 21.39-6.15 28.97-4.68-18.61-14.94-44.4-28.07-74.24-36.49-1.53-.43-3.06-.84-4.59-1.24-.09-.02-.17-.05-.26-.07-.29-.07-.57-.14-.86-.22-1.34-.34-2.68-.68-4.01-1-.26-.06-.52-.12-.77-.18-1.37-.32-2.74-.64-4.11-.94-.18-.04-.36-.07-.53-.11-1.46-.32-2.91-.62-4.36-.9-.08-.02-.16-.03-.24-.05-3.75-.74-7.47-1.38-11.15-1.92 0 0 0 .01.01.02 3.98 6.35 6.62 12.73 7.97 18.72 4.74 1.34 9.18 2.66 13.36 3.97 23.94 7.51 39.23 14.84 50.49 25.08-16.5.67-28.82 9.46-33.2 14.57 4.21-1.76 9.13-3.23 14.69-3.94.69-.09 1.4-.16 2.11-.22 1.56-.14 3.15-.23 4.8-.23 3.8 0 7.74.38 11.7 1.14 3.94.75 8.9 2.16 13.8 5.72 3.78 2.74 7.53 6.77 10.78 12.77.66 1.22 1.29 2.47 1.91 3.71 3.52 7.01 7.52 14.95 17.87 20.25.49.25.96.52 1.43.82 3.21 2.02 6.01 5.17 7.61 10.02l115.36 63.37c-4.08-1.41-8.07-2.43-11.8-3.07-11.78-2.01-21.11-.21-23.46 5.39-.2.49-.35.99-.44 1.51-1.45 8.18 10.79 20.21 28.69 27.75 1.71.72 3.41 1.37 5.1 1.96-4.39 1.07-9.79 1.19-15.69.32 2.77 1.63 5.76 3.15 8.95 4.49 19.59 8.24 38.85 6.9 43.02-3 1.44-3.43.88-7.44-1.28-11.56-1.5-3.31-4.45-6.86-8.5-10.29l19.73 10.84s19.63 4.68 27.12-.66z"/></g><path d="m571.15 268.48c2.17 4.12 2.73 8.13 1.28 11.56-4.17 9.9-23.43 11.24-43.02 3-3.18-1.34-6.18-2.85-8.95-4.49 5.9.87 11.3.75 15.69-.32-1.69-.59-3.39-1.24-5.1-1.96-17.9-7.53-30.14-19.57-28.69-27.75.09-.52.24-1.02.44-1.51 2.36-5.6 11.68-7.4 23.46-5.39 3.74.64 7.72 1.66 11.8 3.07l-115.36-63.37c-8.08-6.46-18.04-7.37-32.36-7.26-7.89 0-14.53-.95-19.21-2.76-14.9-5.74-21.39-15.79-20.42-31.61l.19-3.08-2.78-1.34c-4.21-2.03-8.35-3.26-12.11-3.98 4.38-5.12 16.7-13.9 33.2-14.57-11.25-10.24-26.55-17.57-50.49-25.08-4.19-1.31-8.62-2.63-13.36-3.97.57 2.53.9 4.99 1.01 7.35.16 3.64-.2 7.05-1.12 10.11-.87.4-1.73.68-2.59.86-5.51 1.18-10.85-1.66-15.53-5.71-2.49-2.15-4.79-4.64-6.84-7.06-7.75-9.14-17.42-18.56-28.87-25.97-6.73-4.36-14.08-8-22-10.5-.17-.05-.33-.12-.5-.17-23.77-7.32-50.04.69-74.89 9.09-4.51 1.52-8.98 3.06-13.37 4.52-31.88 10.59-53.94-16.73-53.94-16.73s7.27 29.16 47.03 44.34c2.28.87 4.65 1.7 7.15 2.47 4.27 1.31 8.37 2.22 12.34 2.82 1.12.17 2.22.31 3.31.43 9.72 1.09 18.63.45 27.18-.33 23.52-2.14 44.23-5.3 71.1 23.77l-.62.31s-12.62 14.97-36.64 13.17c0 0 9.75-6.23 13.05-16.19-12.3-11.16-17.92-8.56-27.16-8.56-4.99 0-10.24.49-15.8 1-6.08.57-12.35 1.14-19.16 1.21-15.46 15.11-27.83 28.3-36.46 44.81v-23.8c-1.16 1.09-2.33 2.17-3.49 3.29-21.77 21.07-38.8 36.69-49.79 57.72v-23.8c-1.16 1.09-2.34 2.17-3.49 3.28-15.75 15.25-28.98 31.3-39.27 46.98 0 0-.01 0-.02 0v.01c1.51 2.96 3.17 5.77 4.97 8.41.07.11.15.22.22.32.35.51.71 1.01 1.08 1.51.12.16.24.33.36.49.33.44.66.87.99 1.3.14.18.28.36.42.54.34.42.68.83 1.02 1.24.14.16.27.33.41.48.48.55.96 1.1 1.45 1.63l74.81-57.87s-26.84 38.25-39.25 77.38c16 10.31 32.39 28.62 42.84 42.95 20.3-20.26 64.34-47.79 102.71-54.01-17.19-9.93-36.16-33.07-25.75-49.83 6.77 18 28.42 34.76 57.14 45.33 2.9 1.07 5.86 2.07 8.89 3 12.11 3.73 24.34 6.04 35.9 6.88 16.47 1.21 31.56-.55 42.98-5.45 1.96-2.19 4.22-4.31 6.86-6.31 2.55-1.92 5.45-3.72 8.8-5.34 3.5-1.7 7.48-3.2 12.05-4.44-1.25-2.08-3.93-3.92-7.39-5.17-2.78-1-6.07-1.62-9.55-1.68 0 0 3.65-3.12 10.43-3.97 8.68-1.1 22.48 1.51 40.31 19.09 18.77 18.51 90.85 65.28 131.61 65.28 19.69 0 31.98-6.46 41.48-14.66 0 0 14.04-7.05 3.24-21.37l-2.62-3.09-19.73-10.84c4.05 3.43 7 6.98 8.5 10.29zm-246.27-56.86c-.12 1.33-.36 2.65-.75 3.95-.23.74-.51 1.44-.82 2.13-1.25-3.59-3.44-7.26-6.42-10.89-10.28-12.56-29.94-24.7-52.57-31.67-15.62-4.81-30.81-6.5-43.51-5.42 11.99-9.02 33.62-11.24 55.89-4.38 3.38 1.04 6.67 2.26 9.84 3.62l-9.01-11.37c34.72 10.51 45.46 42.97 45.46 42.97v.02c1.52 3.72 2.21 7.45 1.89 11.05zm74.32-12.78c-8.67 4.01-25.67 2.06-37.89-2.16-1.2-.42-2.38-.87-3.52-1.35-11.28-4.76-19.59-12.68-22.79-20.93-1.66-4.28-1.95-8.65-.54-12.72 0-.02.02-.04.03-.06 1.17 2.72 2.73 5.38 4.7 7.95 6.09 7.93 15.42 14.36 26.28 18.11 7.57 2.62 15.49 3.77 22.89 3.33 5.51-.32 10.52-1.49 14.86-3.36l59 26.68-63.02-15.48z" fill="#c8c8c8"/><path d="m452.8 156.71c-5.51-6.94-.53-18.94-.53-18.94l-4.86-8.76c-18.21-32.78-62.05-61.04-112.95-75.42-5.66-1.6-11.36-3.01-17.05-4.23-12.45-15.69-30.71-33.15-54.87-41.67-14.26-5.03-29.12-5.27-43.45-3.61-13.93 1.61-28.11 5.15-41.89 8.43-28.01 6.68-48.87 10.38-63.73.02l-17.99-12.53s4.69 25.52 7.43 31.38c.78 1.67 1.72 3.5 2.86 5.46-13.01-1.89-34.04-9.28-34.66-9.5l-15.81-5.64 9.24 37.27c.61 2.46 7.57 27.94 36.73 47.66-31.25 19.5-63.69 42.67-91.34 65.27l-9.92 8.12 1.76 12.69c4.43 31.98 22.24 71.54 53.15 82.71 6.99 2.53 20.49 12 34.04 25.24-6.23 2.81-10.58 9.06-10.58 16.34 0 9.9 8.03 17.93 17.93 17.93 6.27 0 11.79-3.23 14.99-8.11 2.44 3.52 4.72 7.13 6.77 10.8l7.23 12.96 8.16-12.39c16.25-24.65 62.27-55.2 125.19-65.18l.97.3c23.95 7.2 46.48 10.23 64.45 8.19 11.14 2.79 132.43 33.8 163.12 42.21 9.22 5.84 95.19 31.59 120.47-16.69 8.38-7.93 15.43-17.63 20.35-25.23 5.26-8.12 12.32-22.08 12.32-22.08l-187.53-102.99zm-360.48 155.64h-3.03v12.22h-2.73v-12.22h-3.02v-2.41h8.77v2.41zm14.57 12.22-.46-4.39-.57-5.5-1.3 3.11-2.83 6.77h-.83l-3.99-9.88-1.17 9.88h-2.68l2.23-14.64h2.89l.21.56 2.96 7.87 1.21-3.04 2.15-5.39h2.93l1.96 14.44.03.2h-2.7zm493.56-23.17c-29.03 45.88-113.81 12.14-115.17 11.32-22.2-5.09-149.46-37.58-160.65-40.4-16.51 2.22-38.33-.43-62.39-7.67-.98-.29-1.93-.59-2.88-.89-65.61 9.89-115.17 41.74-133.42 69.44-3.41-6.1-7.42-12.07-11.78-17.77-4.26-5.57-8.87-10.9-13.58-15.84-15.98-16.78-33.2-29.26-42.6-32.66-26-9.4-42.98-44.41-47.29-75.47l-1.06-7.68 6.01-4.91c31.19-25.49 68.52-51.7 103.25-72.45-37.4-18.36-45.24-48.19-45.6-49.62l-5.2-20.98s29.35 10.46 42.81 10.46c3.87 0 7.99-.47 12.3-1.27-12.47-13.08-14.88-25.08-14.88-25.08 37.57 26.2 101.28-21.34 151.22-3.73 23.2 8.18 40.84 25.64 52.79 41.33 6.57 1.32 13.15 2.9 19.68 4.74 49.76 14.06 90.96 41.31 107.52 71.12l2.94 5.3s-5.68 13.46 4.13 24.9l181.76 99.81s-11.8 23.27-27.91 37.99z" fill="#c8c8c8"/><path d="m83.55 312.35h3.02v12.22h2.73v-12.22h3.02v-2.41h-8.77z" fill="#006937"/><path d="m107.61 309.94h-2.92l-2.15 5.39-1.21 3.03-2.95-7.86-.21-.56h-.3-2.59l-2.23 14.63h2.68l1.18-9.88 3.99 9.88h.83l2.83-6.77 1.3-3.11.58 5.49.45 4.39h2.71l-.03-.19z" fill="#006937"/><path d="m350.89 136.62-.19 3.08c-.96 15.83 5.52 25.87 20.42 31.61 4.69 1.8 11.33 2.76 19.21 2.76 14.32-.11 24.29.8 32.36 7.26-1.6-4.85-4.4-8-7.61-10.02-.47-.3-.95-.57-1.43-.82-10.35-5.3-14.35-13.24-17.87-20.25-.63-1.24-1.25-2.49-1.91-3.71-3.24-6-7-10.03-10.78-12.77-4.91-3.56-9.86-4.96-13.8-5.72-3.96-.75-7.9-1.14-11.7-1.14-1.65 0-3.24.09-4.8.23-.71.06-1.42.13-2.11.22-5.56.7-10.47 2.18-14.69 3.94 3.76.72 7.9 1.95 12.11 3.98l2.78 1.34zm22.08 7.49c2.25 1.07 9.79 5.1 10.19 10.1.13 1.58-1.22 2.75-2.74 2.13.4 5.9 5.3 6.94 9.37 7-13.9 8.61-32.59-9.62-16.81-19.23z" fill="#006937"/><path d="m446.6 163.6c-9.81-11.44-4.13-24.9-4.13-24.9l-2.94-5.3c-16.56-29.81-57.76-57.06-107.52-71.12-6.53-1.84-13.11-3.42-19.68-4.74-11.96-15.68-29.59-33.15-52.79-41.33-49.94-17.61-113.65 29.93-151.22 3.73 0 0 2.41 12.01 14.88 25.08-4.32.8-8.44 1.27-12.3 1.27-13.46 0-42.81-10.46-42.81-10.46l5.2 20.98c.36 1.44 8.2 31.26 45.6 49.62-34.73 20.75-72.07 46.96-103.25 72.45l-6.01 4.91 1.06 7.68c4.3 31.07 21.29 66.08 47.29 75.47 9.41 3.4 26.62 15.88 42.6 32.66 4.71 4.95 9.31 10.27 13.58 15.84 4.36 5.7 8.37 11.67 11.78 17.77 18.25-27.7 67.8-59.55 133.42-69.44.95.3 1.9.59 2.88.89 24.06 7.23 45.88 9.88 62.39 7.67 11.19 2.82 138.45 35.31 160.65 40.4 1.36.82 86.14 34.56 115.17-11.32 16.11-14.72 27.91-37.99 27.91-37.99l-181.76-99.81zm-88.6 97.86c1.72-2.12 4.37-4.4 7.43-6.59l17.99 3.76-9.13-9.25c5.24-2.81 10.35-4.81 13.36-5 23.28 21.78 54.45 40.18 54.45 40.18s-42.78-13.78-84.1-23.1zm224.38 7.57c1 1.07 1.87 2.1 2.62 3.09 10.8 14.32-3.24 21.37-3.24 21.37-9.5 8.2-21.79 14.66-41.48 14.66-40.76 0-112.83-46.77-131.61-65.28-17.83-17.58-31.63-20.18-40.31-19.09-6.78.86-10.43 3.97-10.43 3.97 3.48.06 6.77.68 9.55 1.68 3.47 1.25 6.14 3.08 7.39 5.17-4.57 1.24-8.55 2.74-12.05 4.44-3.35 1.62-6.25 3.42-8.8 5.34-2.64 1.99-4.9 4.11-6.86 6.31-11.42 4.89-26.51 6.66-42.98 5.45-11.56-.85-23.78-3.15-35.9-6.88-3.03-.93-6-1.94-8.89-3-28.72-10.56-50.37-27.33-57.14-45.33-10.42 16.77 8.55 39.9 25.75 49.83-38.36 6.22-82.41 33.75-102.71 54.01-10.46-14.34-26.84-32.65-42.84-42.95 12.42-39.13 39.25-77.38 39.25-77.38l-74.81 57.87c-7.16-7.72-12.86-17.95-16.45-29.56-2.76-8.01-5.21-16.98-6.07-23.19 27.76-22.69 71.32-53.37 111.08-76.52.45.14.89.29 1.35.43.85.26 1.7.5 2.55.73 8.9 2.49 18.07 3.71 27.94 3.71.39 0 .78 0 1.16-.01 6.81-.06 13.09-.64 19.16-1.21 5.56-.52 10.81-1 15.8-1 9.24 0 14.86-2.6 27.16 8.56-3.31 9.96-13.05 16.19-13.05 16.19 24.02 1.8 36.64-13.17 36.64-13.17l.62-.31c-26.86-29.08-47.57-25.92-71.1-23.77-8.54.78-17.46 1.42-27.18.33-1.09-.12-2.2-.26-3.31-.43-3.97-.6-8.07-1.5-12.34-2.82-2.5-.77-4.87-1.6-7.15-2.47-39.76-15.18-47.03-44.34-47.03-44.34 14.12 9.2 31.24 7.58 49.73 2.69 31.29-8.27 66.47-25.89 97.62-16.3 1.09.33 2.16.7 3.22 1.07.21.07.42.15.63.22 1.02.37 2.02.76 3.02 1.16.2.08.4.17.61.25.96.4 1.91.81 2.85 1.24.08.04.17.07.25.11.99.46 1.96.93 2.92 1.42.22.11.44.22.65.33.94.48 1.86.98 2.78 1.49.19.11.37.21.56.32.85.48 1.69.98 2.52 1.48.13.08.26.15.39.23.9.55 1.78 1.12 2.65 1.69.21.14.43.28.64.42.77.51 1.53 1.03 2.29 1.56.09.06.17.12.26.19.16.11.32.23.48.35.77.55 1.52 1.11 2.27 1.67.15.11.3.22.44.33.82.62 1.62 1.25 2.41 1.89.2.16.39.32.59.48.79.64 1.57 1.29 2.34 1.95.12.11.24.21.37.32.71.61 1.41 1.22 2.1 1.84.15.13.29.26.44.4.74.67 1.47 1.35 2.19 2.04.17.16.33.32.5.48.56.53 1.11 1.07 1.65 1.6.14.14.29.29.44.43.02.02.05.05.07.07.07.07.13.14.2.21.68.68 1.34 1.36 1.99 2.04.13.13.26.27.38.4.68.71 1.34 1.42 2 2.13.13.14.26.28.38.42 1.36 1.49 2.67 2.98 3.92 4.47.1.11.2.23.29.34.62.73 1.22 1.46 1.81 2.19.08.1.16.19.24.29 1.23 1.52 2.4 3.02 3.52 4.49.05.07.11.15.16.22.56.74 1.11 1.48 1.65 2.21.02.03.04.06.06.08 1.11 1.52 2.16 3 3.15 4.44 0 0 0 .01.01.02 1.41 2.05 2.69 4 3.84 5.82 2.12 3.34 3.8 6.23 5.02 8.43.92-3.06 1.29-6.47 1.12-10.11-.11-2.36-.44-4.82-1.01-7.35-1.35-5.99-3.99-12.37-7.97-18.72 0 0 0-.01-.01-.02 3.68.54 7.4 1.18 11.15 1.92.08.02.16.03.24.05 1.45.29 2.9.59 4.36.9.18.04.36.07.53.11 1.37.3 2.73.61 4.11.94.26.06.52.12.77.18 1.33.32 2.67.66 4.01 1 .29.07.57.14.86.22.09.02.17.04.26.07 1.53.4 3.06.82 4.59 1.25 29.83 8.43 55.62 21.55 74.24 36.49-7.58-1.47-20.31-.63-28.97 4.68-.41.25-.82.49-1.2.76 1.5-.09 3-.16 4.53-.16.9 0 1.8.02 2.69.05 21.88.73 40.27 10.34 47.64 23.61-.11.36-.23.71-.33 1.07-3.09 10.93 3.57 23.46 10.55 32.24l172.11 94.06c-7.49 5.34-27.12.66-27.12.66z" fill="#006937"/></svg>