<?xml version="1.0" encoding="UTF-8"?>
<svg xmlns="http://www.w3.org/2000/svg" xmlns:xlink="http://www.w3.org/1999/xlink" width="500px" height="370px" viewBox="0 0 500 370" version="1.1">
<defs>
<clipPath id="clip1">
  <path d="M 0 0 L 500 0 L 500 368.058594 L 0 368.058594 Z M 0 0 "/>
</clipPath>
</defs>
<g id="surface1">
<g clip-path="url(#clip1)" clip-rule="nonzero">
<path style=" stroke:none;fill-rule:nonzero;fill:rgb(75.686276%,0.784314%,18.82353%);fill-opacity:1;" d="M 486.550781 331.3125 C 485.675781 328.976562 464.578125 273.84375 408.410156 248.253906 C 388.917969 239.367188 368.558594 234.085938 350.578125 229.417969 C 337.117188 225.917969 308.132812 213.644531 294.839844 192.203125 L 287.671875 180.648438 C 284.542969 145.609375 293.308594 103.3125 309.925781 72.859375 C 315.550781 62.542969 332.941406 39.652344 358.445312 26.902344 L 395.597656 8.335938 L 354.578125 1.769531 C 342.359375 -0.175781 328.949219 -0.9375 303.257812 1.6875 C 281.503906 3.90625 256.464844 10.535156 232.753906 20.359375 L 223.09375 24.390625 L 220.773438 29.441406 L 216.78125 31.527344 C 197.910156 41.253906 180.179688 53.042969 163.90625 66.679688 L 156.15625 73.210938 L 154.582031 83.660156 L 151.070312 87.257812 C 136.570312 102.21875 123.785156 115.929688 114.054688 132.109375 L 108.699219 141.027344 L 109.085938 142.964844 C 97.757812 159.148438 88.347656 176.597656 81.046875 194.953125 L 75.839844 208.277344 L 80.070312 214.40625 C 78.28125 222.003906 77.167969 229.75 76.734375 237.542969 C 61.867188 230.960938 48.800781 224.4375 40.0625 220 L 8.335938 203.921875 L 4.785156 220.957031 C 4.503906 222.269531 -1.976562 253.320312 0.617188 275.824219 L 1.042969 279.59375 L 1.347656 279.980469 L 4.230469 295.492188 L 4.410156 296.273438 C 4.730469 297.546875 5.011719 298.691406 5.285156 299.785156 C 6.566406 305.398438 8.308594 310.898438 10.492188 316.226562 L 11.484375 318.726562 L 12.796875 320.058594 L 12.160156 321.039062 L 15.621094 327.914062 C 26.195312 348.878906 42.949219 363.410156 43.644531 364.015625 L 47.082031 366.976562 L 56.460938 367.507812 C 63.003906 367.871094 101.261719 368.058594 173.449219 368.058594 C 288.054688 368.058594 444.03125 367.601562 461.503906 367.546875 L 500.054688 367.433594 Z M 486.550781 331.3125 "/>
</g>
<path style=" stroke:none;fill-rule:nonzero;fill:rgb(100%,100%,100%);fill-opacity:1;" d="M 474.046875 336 C 473.257812 333.917969 454.085938 283.761719 402.898438 260.433594 C 384.449219 252.027344 364.652344 246.921875 347.222656 242.367188 C 329.148438 237.679688 298.378906 223.28125 283.480469 199.257812 C 282.042969 203.589844 279.90625 210.71875 279.90625 210.71875 C 277.03125 201.347656 275.171875 191.699219 274.367188 181.929688 C 270.699219 140.660156 282.074219 96.050781 298.191406 66.523438 C 304.976562 54.050781 324.019531 29.171875 352.464844 14.972656 C 340.617188 13.074219 327.824219 12.605469 304.609375 14.972656 C 284.074219 17.054688 260.070312 23.503906 237.929688 32.683594 L 233.085938 34.714844 L 231.003906 39.195312 L 222.9375 43.363281 C 204.949219 52.628906 188.039062 63.863281 172.523438 76.859375 L 168.636719 80.140625 L 167.875 85.171875 C 167.761719 85.996094 167.53125 87.570312 167.25 89.796875 L 160.71875 96.550781 C 146.800781 110.917969 134.546875 123.980469 125.546875 138.996094 L 122.859375 143.476562 L 123.347656 145.953125 L 120.859375 149.445312 C 109.769531 165.109375 100.582031 182.03125 93.476562 199.859375 L 90.839844 206.550781 L 94.507812 211.851562 L 93.382812 216.09375 C 89.996094 228.835938 89.214844 244.660156 89.996094 257.664062 C 69.972656 249.683594 51.261719 240.710938 33.976562 231.929688 L 17.816406 223.730469 C 17.816406 223.730469 11.484375 253.734375 13.859375 274.292969 L 19.941406 282 L 15.835938 284.960938 L 17.316406 292.972656 C 19.183594 300.265625 19.652344 303.234375 22.859375 311.277344 C 25.195312 313.664062 28.070312 315.183594 30.777344 317.039062 C 29.597656 318.601562 28.515625 320.238281 27.539062 321.933594 C 37.019531 340.6875 52.355469 353.941406 52.355469 353.941406 L 57.1875 354.210938 C 64.199219 354.609375 112.492188 354.734375 173.429688 354.734375 C 289.398438 354.734375 451.179688 354.265625 461.441406 354.234375 L 480.789062 354.171875 Z M 474.046875 336 "/>
<path style=" stroke:none;fill-rule:nonzero;fill:rgb(0%,0%,0%);fill-opacity:1;" d="M 27.902344 243.941406 C 69.210938 264.925781 124.941406 290.597656 189.476562 296.460938 C 154.863281 288.398438 125.628906 280.59375 104.605469 267.914062 C 102.769531 256.183594 102.261719 235.273438 106.4375 219.550781 C 121.710938 237.441406 149.832031 259.695312 179.203125 272.625 C 148.539062 255.527344 119.941406 224.90625 106.054688 204.808594 C 112.746094 187.96875 121.429688 171.988281 131.910156 157.207031 C 138.890625 181.753906 153.789062 216.875 177.210938 244.492188 C 155.46875 213.84375 142.320312 171.824219 137.101562 145.933594 C 145.527344 131.910156 157.480469 119.253906 170.386719 105.925781 C 169.636719 131.410156 173.597656 171.09375 188.722656 205.644531 C 174.136719 162.625 177.847656 109.5625 181.191406 87.164062 C 195.941406 74.8125 212.015625 64.136719 229.117188 55.335938 C 220.710938 79.140625 213.417969 126.910156 218.261719 166.167969 C 216.648438 121.691406 233.378906 66.347656 243.097656 45.125 C 256.214844 39.644531 284.085938 29.414062 312.257812 27.765625 C 260.851562 65.917969 228.542969 226.855469 308.476562 266.582031 C 300.964844 262.300781 295.339844 253.496094 294.527344 235.648438 C 310.308594 252.195312 357.851562 254.726562 397.285156 272.699219 C 443.980469 293.972656 461.402344 340.691406 461.402344 340.691406 C 461.402344 340.691406 78.140625 341.847656 57.941406 340.691406 C 52.1875 335.210938 47.421875 328.78125 43.855469 321.6875 L 111.03125 321.6875 C 111.03125 321.6875 70.402344 316.476562 37.65625 311.695312 C 34.300781 304.503906 32.445312 297.710938 30.414062 289.617188 C 46.550781 291.367188 75.285156 295.398438 98.96875 296.535156 C 70.378906 289.304688 45.925781 283.792969 27.777344 276.5625 C 26.0625 265.753906 26.105469 254.738281 27.902344 243.941406 Z M 27.902344 243.941406 "/>
<path style=" stroke:none;fill-rule:nonzero;fill:rgb(75.686276%,0.784314%,18.82353%);fill-opacity:1;" d="M 229.128906 55.335938 C 212.023438 64.136719 195.949219 74.8125 181.203125 87.164062 C 179.777344 97.160156 178.867188 107.222656 178.472656 117.316406 C 191.703125 93.027344 217.574219 66.574219 229.128906 55.335938 Z M 229.128906 55.335938 "/>
<path style=" stroke:none;fill-rule:nonzero;fill:rgb(75.686276%,0.784314%,18.82353%);fill-opacity:1;" d="M 312.257812 27.765625 C 284.125 29.414062 256.214844 39.644531 243.097656 45.125 C 239.003906 54.464844 235.503906 64.054688 232.628906 73.835938 C 251.890625 55.335938 285.03125 34.984375 312.257812 27.765625 Z M 312.257812 27.765625 "/>
<path style=" stroke:none;fill-rule:nonzero;fill:rgb(75.686276%,0.784314%,18.82353%);fill-opacity:1;" d="M 170.386719 105.925781 C 157.476562 119.25 145.527344 131.910156 137.097656 145.933594 C 138.359375 152.183594 140.089844 159.402344 142.308594 167.164062 C 148.988281 148.070312 153.738281 133.640625 170.386719 105.925781 Z M 170.386719 105.925781 "/>
<path style=" stroke:none;fill-rule:nonzero;fill:rgb(54.11765%,54.901963%,55.686277%);fill-opacity:1;" d="M 106.4375 219.550781 C 102.269531 235.273438 102.769531 256.183594 104.605469 267.914062 C 111.742188 272.128906 119.230469 275.722656 126.984375 278.65625 C 115.117188 262.402344 111 245.660156 106.4375 219.550781 Z M 106.4375 219.550781 "/>
<path style=" stroke:none;fill-rule:nonzero;fill:rgb(75.686276%,0.784314%,18.82353%);fill-opacity:1;" d="M 286.605469 273.75 C 251.410156 248.660156 243.292969 208.851562 245.171875 164.6875 C 233.5625 180.410156 223.457031 228.324219 245.921875 265.746094 C 231.699219 261.582031 218.59375 239.921875 213.351562 208.101562 C 206.796875 237.992188 212.820312 263.269531 226.894531 277.707031 C 221.6875 279.6875 204.828125 274.105469 195.640625 264.464844 C 211.820312 307.097656 274.15625 297.566406 286.605469 273.75 Z M 286.605469 273.75 "/>
<path style=" stroke:none;fill-rule:nonzero;fill:rgb(75.686276%,0.784314%,18.82353%);fill-opacity:1;" d="M 362.785156 306.976562 C 357.578125 304.253906 352.03125 302.242188 346.292969 300.996094 C 339.28125 299.476562 331.96875 300.171875 325.371094 302.984375 C 332.914062 303.734375 340.457031 305.308594 347.675781 306.632812 L 348.261719 306.746094 C 353.09375 306.257812 357.96875 306.335938 362.785156 306.976562 Z M 362.785156 306.976562 "/>
<path style=" stroke:none;fill-rule:nonzero;fill:rgb(54.11765%,54.901963%,55.686277%);fill-opacity:1;" d="M 131.910156 157.207031 C 121.425781 171.988281 112.746094 187.96875 106.050781 204.808594 C 111.238281 212.1875 116.875 219.230469 122.9375 225.90625 C 120.792969 203.851562 124.574219 184.035156 131.910156 157.207031 Z M 131.910156 157.207031 "/>
<path style=" stroke:none;fill-rule:nonzero;fill:rgb(100%,100%,100%);fill-opacity:1;" d="M 379.632812 307.777344 C 385.03125 310.121094 393.335938 309.859375 398.699219 306.179688 C 389.144531 307.640625 382.550781 302.648438 383.425781 293.910156 C 379.9375 292.335938 377.683594 291.386719 374.382812 290.210938 C 370.703125 296.804688 372.164062 304.535156 379.632812 307.777344 Z M 379.632812 307.777344 "/>
<path style=" stroke:none;fill-rule:nonzero;fill:rgb(54.11765%,54.901963%,55.686277%);fill-opacity:1;" d="M 368.246094 308.140625 C 360.503906 302.160156 360.734375 292.074219 364.902344 287.304688 C 356.714844 284.011719 350.515625 281.460938 346.097656 277.75 C 372.195312 281.917969 390.417969 288.386719 412.433594 298.640625 C 388.519531 271.6875 349.421875 270.925781 321.71875 259.925781 C 323.800781 265.382812 330.050781 272.769531 334.75 275.375 C 328.90625 275.375 317.582031 275.894531 306.910156 284.753906 C 324.082031 283.386719 337.5625 289.636719 345.378906 296.367188 C 325.019531 294.828125 295.929688 296.679688 276.40625 307.828125 C 298.710938 307.851562 336.792969 308.140625 368.246094 308.140625 Z M 368.246094 308.140625 "/>
<path style=" stroke:none;fill-rule:nonzero;fill:rgb(100%,100%,100%);fill-opacity:1;" d="M 418.066406 303.179688 C 426.789062 309.609375 436.207031 320.945312 441.15625 330.269531 L 398.492188 330.269531 C 409.148438 321.738281 414.171875 313.078125 418.066406 303.179688 Z M 418.066406 303.179688 "/>
<path style=" stroke:none;fill-rule:nonzero;fill:rgb(100%,100%,100%);fill-opacity:1;" d="M 207.515625 171.59375 C 205.273438 148.113281 205.359375 124.464844 207.765625 101 C 201.476562 106.132812 195.457031 111.585938 189.722656 117.335938 C 188.847656 136.816406 191.285156 173.878906 197.984375 201.164062 C 201.589844 186.234375 206.507812 172.949219 207.515625 171.59375 Z M 207.515625 171.59375 "/>
<path style=" stroke:none;fill-rule:nonzero;fill:rgb(100%,100%,100%);fill-opacity:1;" d="M 243.328125 77.265625 C 237.378906 96.757812 229.398438 129.585938 228.878906 161.519531 C 236.609375 148.640625 244.328125 137.828125 251.890625 129.546875 C 255.265625 107.152344 261.789062 85.351562 271.261719 64.78125 C 261.664062 68.277344 252.332031 72.445312 243.328125 77.265625 Z M 243.328125 77.265625 "/>
<path style=" stroke:none;fill-rule:nonzero;fill:rgb(100%,100%,100%);fill-opacity:1;" d="M 162.1875 149.902344 C 158.90625 154.464844 155.820312 159.058594 152.933594 163.625 C 158.320312 182.816406 171.292969 213.632812 182.011719 232.574219 C 182.011719 225.886719 181.503906 221.25 181.335938 214.238281 C 174.867188 197.015625 166.261719 171.78125 162.1875 149.902344 Z M 162.1875 149.902344 "/>
<path style=" stroke:none;fill-rule:nonzero;fill:rgb(75.686276%,0.784314%,18.82353%);fill-opacity:1;" d="M 236.074219 324.121094 L 340.53125 324.121094 C 353.542969 324.121094 367.558594 314.558594 367.558594 314.558594 L 273.257812 314.558594 C 255.628906 314.558594 236.074219 324.121094 236.074219 324.121094 Z M 236.074219 324.121094 "/>
<path style=" stroke:none;fill-rule:nonzero;fill:rgb(75.686276%,0.784314%,18.82353%);fill-opacity:1;" d="M 27.902344 243.941406 C 27.058594 252.277344 25.140625 263.527344 27.777344 276.582031 C 55.324219 289.5625 98.976562 296.554688 98.976562 296.554688 C 98.976562 296.554688 42.257812 282.4375 27.902344 243.941406 Z M 27.902344 243.941406 "/>
<path style=" stroke:none;fill-rule:nonzero;fill:rgb(54.11765%,54.901963%,55.686277%);fill-opacity:1;" d="M 30.410156 289.636719 C 30.410156 289.636719 34.433594 306.382812 37.703125 311.714844 C 57.988281 316.757812 89.902344 320.050781 107.902344 321.300781 C 72.148438 313.257812 43.402344 308.996094 30.410156 289.636719 Z M 30.410156 289.636719 "/>
<path style=" stroke:none;fill-rule:nonzero;fill:rgb(54.11765%,54.901963%,55.686277%);fill-opacity:1;" d="M 43.851562 321.707031 C 43.851562 321.707031 50.164062 335.480469 57.9375 340.691406 C 80.996094 340.691406 130.585938 341.199219 130.585938 341.199219 C 130.585938 341.199219 78.777344 340.792969 43.851562 321.707031 Z M 43.851562 321.707031 "/>
</g>
</svg>
