<?xml version="1.0" encoding="UTF-8"?>
<svg xmlns="http://www.w3.org/2000/svg" xmlns:xlink="http://www.w3.org/1999/xlink" width="500px" height="350px" viewBox="0 0 497 350" version="1.1">
<g id="surface1">
<path style=" stroke:none;fill-rule:nonzero;fill:rgb(100%,100%,100%);fill-opacity:1;" d="M 308.21875 122.976562 C 284.820312 112.160156 263.667969 101.101562 266.472656 90.683594 C 268.660156 82.785156 270.109375 77.578125 286.210938 77.578125 C 292.15625 77.597656 310.425781 79.40625 316.070312 87.28125 C 317.34375 89.050781 318.796875 92.113281 316.746094 98.296875 Z M 430.640625 45.320312 C 403.683594 15.253906 353.882812 0 282.632812 0 C 276.550781 0 133.496094 0.972656 111.40625 84.894531 C 85.363281 158.433594 156.535156 187.011719 208.519531 207.851562 C 233.410156 217.835938 259.136719 228.15625 263.429688 239.710938 C 264.164062 241.640625 264.78125 244.800781 262.117188 249.992188 C 258.640625 256.652344 248.539062 272.203125 230.089844 272.203125 C 224.085938 272.125 205.640625 270.078125 200.050781 262.140625 C 198.820312 260.410156 197.429688 257.429688 199.476562 251.464844 L 211.5625 216.003906 L 0 216.003906 L 64.09375 257.964844 C 67.691406 282.785156 80.296875 303.027344 101.566406 318.222656 C 130.351562 338.746094 174.785156 349.164062 233.550781 349.164062 C 235.0625 349.164062 271.042969 349.003906 310.84375 336.238281 C 364.441406 319.058594 398.773438 286.980469 410.125 243.527344 C 432.589844 179.691406 366.308594 149.503906 317.859375 127.433594 C 316.03125 126.597656 314.203125 125.761719 312.375 124.925781 L 451.671875 124.925781 L 452.390625 118.5625 C 454.554688 98.636719 452.546875 69.78125 430.640625 45.320312 "/>
<path style=" stroke:none;fill-rule:nonzero;fill:rgb(89.019608%,10.588235%,13.725491%);fill-opacity:1;" d="M 317.542969 117.746094 L 445.292969 117.746094 C 449.425781 79.882812 437.597656 7.121094 282.632812 7.121094 C 282.632812 7.121094 138.902344 7.121094 118.207031 87.003906 C 76.796875 202.980469 298.019531 195.859375 268.441406 253.273438 C 261.363281 266.875 248.339844 279.304688 230.011719 279.304688 C 230.011719 279.304688 182.675781 278.726562 192.757812 249.15625 L 201.621094 223.125 L 23.894531 223.125 L 70.753906 253.828125 C 75.046875 292.488281 105.421875 342.046875 233.570312 342.046875 C 233.570312 342.046875 377.300781 342.046875 403.34375 241.460938 C 437.65625 145.03125 247.765625 133.179688 259.613281 88.792969 C 262.574219 78.152344 266.730469 70.457031 286.230469 70.457031 C 286.230469 70.457031 333.566406 70.457031 323.488281 100.644531 Z M 317.542969 117.746094 "/>
<path style=" stroke:none;fill-rule:nonzero;fill:rgb(100%,100%,100%);fill-opacity:1;" d="M 295.199219 184.546875 L 293.308594 179.753906 C 294.898438 179.117188 296.371094 178.359375 297.722656 177.503906 Z M 240.726562 184.546875 L 238.820312 179.753906 C 240.410156 179.117188 241.878906 178.359375 243.230469 177.503906 Z M 191.445312 170.066406 L 190.925781 151.871094 L 196.632812 155.691406 Z M 492.546875 146.761719 C 487.714844 141.351562 479.246094 138.609375 467.398438 138.609375 C 465.132812 138.609375 447.320312 138.945312 440.183594 149.285156 C 439.546875 148.292969 438.910156 147.457031 438.292969 146.859375 L 438.195312 146.761719 C 437.539062 146.125 431.414062 140.636719 420.5 140.636719 L 371.476562 140.636719 C 366.148438 139.363281 361.300781 139.222656 359.6875 139.222656 L 359.511719 139.222656 C 358.855469 139.222656 348.714844 139.464844 339.769531 145.371094 L 341.4375 140.636719 L 151.644531 140.636719 L 156.953125 132.222656 L 120.332031 132.222656 L 115.941406 141.191406 L 115.878906 132.203125 L 84.011719 132.203125 L 78.148438 141.769531 L 79.042969 132.203125 L 12.605469 132.203125 L 42.859375 151.953125 L 40.058594 198.644531 L 73.953125 198.644531 L 82.761719 183.609375 L 82.761719 198.644531 L 115.125 198.644531 L 144.167969 152.488281 L 147.90625 154.953125 L 119.023438 197.789062 L 152.121094 197.789062 L 155.28125 192.757812 L 161.085938 192.757812 L 161.007812 197.789062 L 212.378906 197.789062 L 214.445312 191.902344 L 216.75 197.789062 L 266.890625 197.789062 L 268.957031 191.921875 L 271.261719 197.789062 L 321.398438 197.789062 L 324.738281 188.246094 C 325 188.683594 325.257812 189.078125 325.496094 189.4375 C 332.394531 199.140625 348.992188 199.640625 352.234375 199.640625 L 352.371094 199.640625 C 353.027344 199.640625 363.328125 199.378906 372.351562 193.335938 L 370.761719 197.789062 L 401.574219 197.789062 L 403.644531 191.921875 L 405.949219 197.789062 L 435.214844 197.789062 L 428.074219 179.773438 C 428.910156 179.433594 429.726562 179.058594 430.5 178.679688 C 430.421875 183.074219 431.773438 187.128906 434.457031 190.371094 C 439.207031 196.121094 447.835938 199.023438 460.101562 199.023438 C 461.15625 199.023438 485.429688 198.804688 490.441406 180.328125 C 492.625 173.925781 490.519531 169.191406 486.960938 165.652344 L 496.363281 165.652344 L 496.878906 160.941406 C 497.4375 155.472656 495.964844 150.539062 492.546875 146.761719 "/>
<path style=" stroke:none;fill-rule:nonzero;fill:rgb(89.019608%,10.588235%,13.725491%);fill-opacity:1;" d="M 30.792969 137.394531 L 48.765625 149.109375 L 46.121094 193.253906 L 71.347656 193.253906 L 88.445312 163.984375 L 88.445312 193.253906 L 112.640625 193.253906 L 147.808594 137.355469 L 124.03125 137.355469 L 111.148438 163.765625 L 111.050781 137.355469 L 87.390625 137.355469 L 71.230469 163.765625 L 73.65625 137.355469 Z M 467.835938 143.796875 C 467.835938 143.796875 446.445312 143.796875 443.363281 155.671875 C 437.199219 172.933594 470.101562 171.859375 465.730469 180.410156 C 464.675781 182.417969 462.746094 184.285156 460.003906 184.285156 C 460.003906 184.285156 452.964844 184.207031 454.457031 179.792969 L 455.789062 175.914062 L 436.523438 175.914062 C 435.550781 181.003906 435.628906 193.613281 460.558594 193.613281 C 460.558594 193.613281 481.949219 193.613281 485.808594 178.660156 C 490.898438 164.300781 462.648438 162.550781 464.417969 155.949219 C 464.855469 154.359375 465.46875 153.222656 468.394531 153.222656 C 468.394531 153.222656 475.429688 153.222656 473.9375 157.71875 L 473.042969 160.285156 L 492.050781 160.285156 C 492.644531 154.636719 490.898438 143.796875 467.835938 143.796875 Z M 360.007812 144.394531 C 360.007812 144.394531 339.410156 144.652344 333.40625 162.171875 L 329.273438 174.421875 C 322.3125 194.507812 352.671875 194.25 352.671875 194.25 C 352.671875 194.25 373.265625 193.992188 379.269531 176.472656 L 383.40625 164.222656 C 390.285156 144.058594 360.007812 144.394531 360.007812 144.394531 Z M 144.191406 145.808594 L 155.71875 153.382812 L 129.398438 192.402344 L 149.636719 192.402344 L 152.796875 187.371094 L 166.894531 187.371094 L 166.792969 192.402344 L 187.210938 192.402344 L 185.9375 145.828125 L 144.191406 145.828125 Z M 192 145.808594 L 203.453125 153.464844 L 189.457031 192.402344 L 209.097656 192.402344 L 214.644531 176.628906 L 220.808594 192.402344 L 238.660156 192.402344 L 232.21875 176.214844 C 235.378906 175.578125 239.097656 174.464844 242.179688 172.078125 C 242.179688 172.078125 247.007812 168.277344 247.902344 163.964844 C 250.726562 155.410156 245.777344 150.5 245.777344 150.5 C 245.777344 150.5 240.828125 145.828125 231.679688 145.828125 L 192 145.828125 Z M 246.453125 145.808594 L 257.902344 153.464844 L 243.90625 192.378906 L 263.550781 192.378906 L 269.09375 176.609375 L 275.257812 192.378906 L 293.109375 192.378906 L 286.667969 176.191406 C 289.832031 175.558594 293.546875 174.441406 296.609375 172.058594 C 296.609375 172.058594 301.441406 168.257812 302.335938 163.941406 C 305.15625 155.390625 300.207031 150.480469 300.207031 150.480469 C 300.207031 150.480469 295.257812 145.808594 286.113281 145.808594 Z M 300.945312 145.808594 L 312.394531 153.464844 L 298.398438 192.378906 L 318.039062 192.378906 L 334.402344 145.808594 Z M 381.21875 145.808594 L 392.667969 153.464844 L 378.675781 192.378906 L 398.316406 192.378906 L 403.863281 176.609375 L 410.023438 192.378906 L 427.917969 192.378906 L 421.476562 176.171875 C 424.636719 175.535156 428.355469 174.421875 431.414062 172.035156 C 431.414062 172.035156 436.246094 168.238281 437.140625 163.921875 C 439.964844 155.371094 435.015625 150.460938 435.015625 150.460938 C 435.015625 150.460938 430.105469 145.785156 420.9375 145.785156 Z M 360.523438 153.742188 C 360.523438 153.742188 367.5625 153.742188 366.070312 158.234375 L 359.449219 177.167969 C 357.601562 184.824219 352.054688 184.824219 352.054688 184.824219 C 352.054688 184.824219 345.015625 184.824219 346.589844 180.328125 L 353.207031 161.398438 C 355.078125 153.742188 360.523438 153.742188 360.523438 153.742188 Z M 221.5625 157.003906 L 226.3125 157.003906 C 228.957031 157.003906 229.914062 157.976562 229.914062 157.976562 C 230.886719 158.953125 230.964844 159.648438 230.964844 160.542969 C 230.964844 161.515625 230.191406 164.082031 228.5 164.859375 C 228.5 164.859375 227.167969 165.496094 224.1875 165.496094 L 218.5625 165.496094 Z M 276.035156 157.003906 L 280.785156 157.003906 C 283.429688 157.003906 284.402344 157.976562 284.402344 157.976562 C 285.378906 158.953125 285.476562 159.648438 285.476562 160.542969 C 285.476562 161.515625 284.660156 164.082031 282.992188 164.859375 C 282.992188 164.859375 281.679688 165.496094 278.679688 165.496094 L 273.050781 165.496094 Z M 410.78125 157.003906 L 415.53125 157.003906 C 418.175781 157.003906 419.148438 157.976562 419.148438 157.976562 C 420.125 158.953125 420.203125 159.648438 420.203125 160.542969 C 420.203125 161.515625 419.429688 164.082031 417.738281 164.859375 C 417.738281 164.859375 416.40625 165.496094 413.425781 165.496094 L 407.796875 165.496094 Z M 168.5625 162.035156 L 167.507812 181.304688 L 156.238281 181.402344 Z M 168.5625 162.035156 "/>
</g>
</svg>
