<?xml version="1.0" encoding="UTF-8" standalone="no"?>
<svg xmlns:rdf="http://www.w3.org/1999/02/22-rdf-syntax-ns#" xmlns="http://www.w3.org/2000/svg" xml:space="preserve" height="147.08" viewBox="0 0 156.36302 147.07688" width="156.36" version="1.1" xmlns:cc="http://creativecommons.org/ns#" xmlns:dc="http://purl.org/dc/elements/1.1/"><g transform="matrix(1.25 0 0 -1.25 -277.35 486.48)"><g transform="matrix(.5 0 0 .5 142.67 165.42)"><path d="m400.61 316.73c-3.2418 4.4673-7.6091 8.8482-13.406 13.341 2.1323 8.0894 0.7976 15.676-2.5169 22.525 5.1284 18.702 7.2513 40.083 6.421 60.792-29.626 19.336-67.899 32.227-115.37 32.227-47.474 0-85.722-12.885-115.35-32.222-2.1668-43.94 9.9756-82.344 31.717-118.95-17.042-16.258-27.178-35.661-31.837-56.656 0 0 19.444 14.304 37.064 26.897-5.9668-9.2998-10.052-20.319-11.047-33.379 0 0 14.77 12.8 32.991 25.808 19.364-20.383 36.008-33.876 56.465-43.617 10.196 4.8549 19.383 10.585 28.43 17.632 3.3051-3.1421 8.7999-4.7661 13.395-3.6773 7.1946 1.7071 11.935 7.8096 10.569 13.726-0.6543 2.8311-2.5867 5.0982-5.212 6.5098 2.6173 2.562 5.2673 5.2392 7.9784 8.0732 19.605-0.3535 44.272 3.8081 57.461 12.695 7.311 4.9258 14.031 12.036 17.127 20.427 3.5465 9.6113 1.0375 19.765-4.8783 27.854z" fill="#fff"/><path d="m374.72 326.44c12.019 21.345-11.027 38.562-33.288 52.17-4.9823 3.0464-66.366 38.176-95.508 54.841-9.4223-1.231-18.535-3.0308-27.251-5.3511 59.804-30.998 124.13-68.476 124.13-68.476 21.812-13.286 20.798-20.602 19.23-24.768-0.4529-1.2066-1.699-2.378-3.5137-3.271 0.5271 3.6211 0.4158 10.656-6.7613 15.691 0 0 2.3214-10.634-3.8038-17.087-5.9959 1.2456-13.297 2.9214-19.402 10.357-6.3614 7.7525-13.606 18.18-26.579 27.896-12.476 9.3428-25.297 10.846-25.297 10.846-15.714-8.0459-21.161-23.176-21.161-23.176s7.7406 5.5865 21.092 9.3438c0 0 9.6459-1.978 13.384-5.9683 0 0-6.9376-3.8105-10.305-12.45-1.9724-5.0586-0.1661-11.84 2.5879-17.02-47.296-9.1479-86.301-37.56-108.77-74.077 42.687 34.841 67.328 46.938 93.107 53.557 20.163-24.512 44.758-25.817 47.796-25.746-6.765 13.529-6.3288 23.356-6.3288 23.356 23.14-5.7442 42.08-26.203 42.08-26.203-4.1346-8.0854-10.782-15.58-10.782-15.58s36.251 0.099 51.735 19.284c5.7638 7.1416 14.87 20.926-16.397 41.832z"/><path d="m144.5 12.799c-5.0541 0-10.062 0.13745-15.016 0.39258 28.684 16.41 57.371 32.816 86.006 49.309 15.669 9.0234 31.605 17.922 45.457 29.662 3.4725 2.9455 6.8153 6.1824 9.877 9.6504 4.1704-18.771 5.9559-37.1 5.3379-54.289-34.37-21.529-80.7-34.725-131.67-34.725zm-15.68 171.82c-36.832 12.267-55.143 22.894-80.773 55.959 27.544-19.81 54.713-32.238 78.488-38.867-14.514 8.4595-29.019 17.794-42.027 26.572 18.031 19.286 39.767 36.665 59.99 47.391 27.496-14.582 54.262-37.712 76.742-67.637-9.4624-7.9651-16.638-12.695-20.75-14.578 2.5599 6.8055 9.498 16.738 9.498 16.738-33.681 11.733-66.288-10.012-81.168-25.578z" transform="matrix(.8 0 0 -.8 160.14 445.62)" fill="#e35205"/><path d="m175.17 121.25c-2.5958 0.11831-8.081 1.2796-10.428 8.6738-1.3731 4.339 0.41247 8.7068 2.8398 12.238 8.3451-1.0071 16.874-1.5417 25.549-1.5606-1.3931-1.3379-2.8945-2.8313-4.4629-4.4805-8.6954-0.45962-16.773 1-16.773 1s2.146-7.2224 8.543-10.537c-1.3104-1.6908-2.606-3.4591-3.8574-5.2969 0 0-0.54489-0.0765-1.4102-0.0371zm9.8105 36.066c34.378 13.749 61.98 35.172 69.777 43.213 0 0-1.863 5.9207-3.3008 9.2324 10.773-2.3236 19.957-9.0814 24.395-15.723 5.8179-8.706 3.6168-15.745-5.1621-23.295-8.7786-7.55-17.402-12.879-17.402-12.879-16.333 5.7654-55.051 1.4434-68.307-0.54882zm-12.875 5.4766c-11.483 0.0701-23.73 3.5352-23.73 3.5352 5.481 7.6221 13.903 17.304 27.682 22.91-4.9129-9.2181-4.1665-22.885-3.9512-26.445z" transform="matrix(.8 0 0 -.8 160.14 445.62)" fill="#fff"/><path d="m40.914 32.947c-10.031 4.28-19.423 9.165-28.06 14.576-0.229 6.342-0.134 12.838 0.285 19.454 43.789-11.478 98.371-3.133 98.371-3.133-22.396-11.65-50.535-23.195-70.596-30.897zm-7.1797 39.846c-8.2756-0.0568-15.212 0.36785-20.072 0.78711 0.88012 9.2681 2.3844 18.742 4.5195 28.334 36.869-15.531 81.748-16.553 81.748-16.553-23.304-9.983-47.989-12.439-66.196-12.564zm36.781 32.467c-18.609 0.28393-35.984 3.9637-49.551 7.9219 2.1724 7.9908 4.7783 16.037 7.8164 24.088 31.236-19.41 67.635-30 67.635-30-8.7271-1.5663-17.442-2.1388-25.9-2.0098zm34.695 21.568c-28.509 1.5515-52.797 11.784-71.309 23.049 4.0859 9.3958 9.7917 20.691 15.811 30.51 21.38-29.022 55.498-53.559 55.498-53.559zm143.01 37.391c-3.0098 0.55487-6.2581 0.91447-9.666 1.1367 8.1672 3.8898 17.592 9.6348 17.592 9.6348-2.8855-7.0202-7.9258-10.771-7.9258-10.771zm-66.971 89.471v2.6562h2.5918v9.4102h3.1387v-9.4102h2.5918v-2.6562h-8.3223zm10.787 0-2.0488 12.066h3.1191l1.0098-6.9453h0.0312l2.7676 6.9453h1.248l2.8965-6.9453h0.0312l0.88086 6.9453h3.1367l-1.8242-12.066h-3.1211l-2.5918 6.4492-2.4492-6.4492h-3.0859z" transform="matrix(.8 0 0 -.8 160.14 445.62)"/></g></g></svg>
